<svg xmlns="http://www.w3.org/2000/svg" xmlns:xlink="http://www.w3.org/1999/xlink" width="32" height="32" viewBox="0 0 32 32">
  <defs>
    <path id="all-tickets-copy-a" d="M15,8 L15,18 L17.5517578,18 L24,18 L24,8 L15,8 Z M18,24 L18,22 L11,22 L11,21 L11,14 L9,14 L9,24 L18,24 Z M18,25 L9,25 L8,25 L8,13 L9,13 L11,13 L11,11 L11,10 L14,10 L14,7 L25,7 L25,19 L22,19 L22,21 L22,22 L19,22 L19,25 L18,25 Z M14.5,19 L14,19 L14,11 L12,11 L12,21 L21,21 L21,19 L14.5,19 L14,19 L14,8 L15,8 L15,19 L14.5,19 Z M16,10 L16,11 L23,11 L23,10 L16,10 Z M16,12 L16,13 L21,13 L21,12 L16,12 Z"/>
  </defs>
  <g fill="none" fill-rule="evenodd">
    <use fill="#20455E" fill-rule="nonzero" xlink:href="#all-tickets-copy-a"/>
  </g>
</svg>
