<svg xmlns="http://www.w3.org/2000/svg" xmlns:xlink="http://www.w3.org/1999/xlink" width="32" height="32" viewBox="0 0 32 32">
  <defs>
    <path id="all-filters-copy-a" d="M17.4281364,15.8609956 L20.25,12.0985107 L20.5,12.0985107 C20.7761424,12.0985107 21,11.8746531 21,11.5985107 L21,11.2501551 C18.8207658,11.8204882 17.1588321,12.1068115 16,12.1068115 C14.8411679,12.1068115 13.1792342,11.8204882 11,11.2501551 L11,11.5985107 C11,11.8746531 11.2238576,12.0985107 11.5,12.0985107 L11.75,12.0985107 L14.5599806,15.8451516 C15.6145657,16.257917 16.5606048,16.2594207 17.4281364,15.8609956 Z M17,17.0564999 C16.3600803,17.1999722 15.6917775,17.1899995 15,17.0284335 L15,20.2956354 C15.4568013,20.5236367 15.7975023,20.6341553 16,20.6341553 C16.2024977,20.6341553 16.5431987,20.5236367 17,20.2956354 L17,17.0564999 Z M10.6952515,9.1335451 C13.0749383,8.37916258 14.8798258,8 16.1297697,8 C17.35852,8 19.1235543,8.3664136 21.4437355,9.09549534 L21.3678552,9.11628905 C20.7136335,9.29556752 20.104819,9.45043551 19.5417827,9.58095345 C18.0927174,9.1931373 16.9527919,9 16.1297697,9 C15.2842761,9 14.1043377,9.20382796 12.5983716,9.61315517 C12.0144859,9.4802163 11.3799689,9.32036968 10.6952515,9.1335451 Z M10,11.5985107 L10,9.9430604 L10.6321448,10.116289 C13.0455736,10.7776487 14.8410653,11.1068115 16,11.1068115 C17.1589347,11.1068115 18.9544264,10.7776487 21.3678552,10.116289 L22,9.9430604 L22,11.5985107 C22,12.3354997 21.468496,12.9483493 20.7678895,13.074658 L18,16.7651774 L18,20.8957446 L17.7388843,21.0377536 C17.014857,21.4315192 16.447402,21.6341553 16,21.6341553 C15.552598,21.6341553 14.985143,21.4315192 14.2611157,21.0377536 L14,20.8957446 L14,16.7651774 L11.2321105,13.074658 C10.531504,12.9483493 10,12.3354997 10,11.5985107 Z"/>
  </defs>
  <g fill="none" fill-rule="evenodd">
    <use fill="#20455E" fill-rule="nonzero" xlink:href="#all-filters-copy-a"/>
  </g>
</svg>
