<?xml version="1.0" encoding="UTF-8" standalone="no"?>
<svg width="24px" height="24px" viewBox="0 0 24 24" version="1.1" xmlns="http://www.w3.org/2000/svg" xmlns:xlink="http://www.w3.org/1999/xlink">
    <!-- Generator: Sketch 3.6 (26304) - http://www.bohemiancoding.com/sketch -->
    <title>article</title>
    <desc>Created with Sketch.</desc>
    <defs></defs>
    <g id="SVGs---Pixel-Perfect" stroke="none" stroke-width="1" fill="none" fill-rule="evenodd">
        <g id="SVGs" transform="translate(-83.000000, -541.000000)">
            <g id="Group-8-Copy" transform="translate(87.000000, 543.000000)"></g>
        </g>
        <g id="article" fill="#9AA9BE">
            <g id="Group" transform="translate(4.000000, 1.000000)">
                <g id="Group-6">
                    <path d="M12.6933594,0 L17,4.41503906 L17,21 L0,21 L0,0 L12.6933594,0 L12.6933594,0 Z M2,19 L17,19 L15,19 L15,5.04309084 L11.9978027,2.00000002 L2,2.00000002 L2,19 L2,19 Z M5,9 L12,9 L12,8 L5,8 L5,9 L5,9 L5,9 Z M5,12 L12,12 L12,11 L5,11 L5,12 L5,12 L5,12 Z M12,15 L12,14 L5,14 L5,15 L12,15 L12,15 Z M11.0522461,1.9979248 L11.0269775,6.0316209 L15.0134277,6.03162098 L15.0134277,5.03162098 L12.0269775,5.03162098 L12.0269775,1.9979248 L11.0522461,1.9979248 L11.0522461,1.9979248 Z" id="Combined-Shape"></path>
                </g>
            </g>
        </g>
    </g>
</svg>