<svg xmlns="http://www.w3.org/2000/svg" width="40" height="33" viewBox="0 0 40 33">
    <g fill="#3899EC" fill-rule="nonzero">
        <path d="M30.056 12H18.82l-5.017-2.972H2.798A1.8 1.8 0 0 0 1 10.834v18.434c0 .997.806 1.806 1.797 1.806H28.26a1.8 1.8 0 0 0 1.797-1.799V12zM0 10.834a2.8 2.8 0 0 1 2.798-2.806h11.278L19.093 11h11.963v18.275a2.8 2.8 0 0 1-2.797 2.799H2.797A2.803 2.803 0 0 1 0 29.268V10.834z"/>
        <path d="M21.386.9l.498.132h-.267l-.23-.133zm.231.132l5.21 2.99h11.19v14.966c0 2.181-1.666 4.024-3.715 4.024H30.32v1h3.98c2.712 0 4.717-2.407 4.717-5.024V3.021H27.094l-5.21-2.99h-7.182c-2.732 0-4.7 2.023-4.7 4.648v4.182h1V4.679c0-2.1 1.547-3.647 3.7-3.647h6.915zm16.4 2.99v-1l1 1h-1zm0-1l1 1h-1v-1zm0 1v14.966c0 2.181-1.666 4.024-3.715 4.024H30.32v1h3.98c2.712 0 4.717-2.407 4.717-5.024l-1-14.967-10.924-1-5.21-2.99h-7.182c-2.732 0-4.7 2.023-4.7 4.648v4.182h1V4.679c0-2.1 1.547-3.647 3.7-3.647h6.915l5.21 2.99h11.19zm-16.133-2.99l-.498-.133.231.133h.267z"/>
    </g>
</svg>
