<svg xmlns="http://www.w3.org/2000/svg" width="26" height="26" viewBox="0 0 26 26">
  <path fill="#FFF" fill-rule="evenodd" d="M24.3539355,11.216487 C24.836992,13.944336 24.3656934,16.6241732 22.9929505,18.9630293 C22.6284534,19.5832622 22.2002673,20.1741002 21.7221099,20.7179063 C21.6642999,20.7825751 21.5957117,20.8893767 21.5957117,21.0285127 L21.5966916,23.9033362 C21.5966916,24.5676615 20.9509831,25.0389601 20.3189922,24.8380948 L17.3295284,23.8847194 C17.233505,23.8543447 17.1316026,23.8572842 17.036559,23.8896186 C16.3986892,24.1149797 15.7412227,24.2844904 15.0817966,24.3903121 C14.1764329,24.5363069 13.2504928,24.5735405 12.322593,24.4961339 C6.93842278,24.0581495 2.5203657,19.6694873 2.04514776,14.2902162 C1.73650105,10.7961396 3.02105924,7.42356198 5.57057898,5.03963363 C8.11813907,2.6527658 11.5789015,1.59552837 15.0749378,2.14031429 C19.7232551,2.86342942 23.5387162,6.59462512 24.3539355,11.216487 Z M8,10 L8,12 L19,12 L19,10 L8,10 Z M8,14 L8,16 L19,16 L19,14 L8,14 Z"/>
</svg>
