<svg xmlns="http://www.w3.org/2000/svg" width="97" height="122">
  <g fill="none" fill-rule="evenodd">
    <path stroke="#E0E3E5" stroke-linecap="round" stroke-width="2" d="M90.42 26.93l4.9 4.9m-4.9 0l4.9-4.9M63.31 9.79l6.63 6.62m-6.63 0l6.63-6.62"/>
    <path fill="#E0E3E5" d="M14.6 82.46H6a3 3 0 0 1-3-3V39.97a3 3 0 0 1 3-3h8.6a3 3 0 0 1 3 3v39.5a3 3 0 0 1-3 3m69.7 1.26h-9.53c-3.77 0-8.35.2-7.81 4.9.36 3.14.57 4.2 2.53 12.85 4.9 21.62-17.65 23.8-16.81 17.12.59-4.7 1.04-7.12-.67-13.86-2.48-11.4-10.21-26-34.1-25.06V40.03s15.5-2.9 28.71-5.04c24.76-4 37.92-7.79 41.04 7.88 4.54 22.72 5.64 30.06 5.78 31.48.35 3.5.02 9.38-9.14 9.38"/>
    <path fill="#FFF" d="M62.96 84.62c.36 3.15.57 4.21 2.53 12.86 4.9 21.62-17.65 23.8-16.81 17.12.59-4.7 1.04-7.12-.67-13.86-2.48-11.4-10.21-26.01-34.1-25.06V36.03s15.5-2.9 28.71-5.04c24.76-4 37.92-7.79 41.04 7.88 3.38 16.94 5.05 24.15 5.78 31.48.35 3.5.02 9.38-9.14 9.38h-9.53c-3.77 0-8.35.2-7.81 4.9"/>
    <path stroke="#66747C" stroke-linecap="round" stroke-linejoin="round" stroke-width="2" d="M62.96 84.62c.36 3.15.57 4.21 2.53 12.86 4.9 21.62-17.65 23.8-16.81 17.12.59-4.7 1.04-7.12-.67-13.86-2.48-11.4-10.21-26.01-34.1-25.06V36.03s15.5-2.9 28.71-5.04c24.76-4 37.92-7.79 41.04 7.88 3.38 16.94 5.05 24.15 5.78 31.48.35 3.5.02 9.38-9.14 9.38h-9.53c-3.77 0-8.35.2-7.81 4.9z"/>
    <path fill="#FFF" d="M88.48 65.07H71.36"/>
    <path stroke="#66747C" stroke-linecap="round" stroke-linejoin="round" stroke-width="2" d="M88.48 65.07H71.36"/>
    <path fill="#FFF" d="M86.76 53.7H69.3"/>
    <path stroke="#66747C" stroke-linecap="round" stroke-linejoin="round" stroke-width="2" d="M86.76 53.7H69.3"/>
    <path fill="#FFF" d="M83.33 42.32h-16.1"/>
    <path stroke="#66747C" stroke-linecap="round" stroke-linejoin="round" stroke-width="2" d="M83.33 42.32h-16.1"/>
    <path fill="#4EB7F5" d="M12.6 32.97H4a3 3 0 0 0-3 3v39.5a3 3 0 0 0 3 3h8.6a3 3 0 0 0 3-3v-39.5a3 3 0 0 0-3-3"/>
    <path stroke="#66747C" stroke-linecap="round" stroke-linejoin="round" stroke-width="2" d="M12.6 32.97H4a3 3 0 0 0-3 3v39.5a3 3 0 0 0 3 3h8.6a3 3 0 0 0 3-3v-39.5a3 3 0 0 0-3-3z"/>
    <path fill="#E0E3E5" d="M79.53 1.5a1.5 1.5 0 1 1-3 0 1.5 1.5 0 0 1 3 0m-30 20a1.5 1.5 0 1 1-3 0 1.5 1.5 0 0 1 3 0"/>
  </g>
</svg>