<svg xmlns="http://www.w3.org/2000/svg" width="129" height="129" viewBox="0 0 129 129">
  <g fill="none" fill-rule="evenodd" transform="translate(6 12)">
    <path fill="#E0E3E5" d="M49,100.635429 L108.308,100.635429 C110.033,100.635429 111.43,99.237429 111.43,97.512429 L111.43,64 C113.665953,64.0801593 115.43,65.0323636 115.43,67.309429 L115.43,101.512429 C115.43,103.237429 114.033,104.635429 112.308,104.635429 L52.123,104.635429 C50.399,104.635429 49,103.237429 49,101.512429 L49,100.635429 Z"/>
    <path fill="#66747C" d="M47 48C47.553 48 48 47.552 48 47 48 46.448 47.553 46 47 46L25 46C24.448 46 24 46.448 24 47 24 47.552 24.448 48 25 48L47 48zM72 85C71.447 85 71 85.448 71 86 71 86.552 71.447 87 72 87L94 87C94.552 87 95 86.552 95 86 95 85.448 94.552 85 94 85L72 85zM25 37C24.447 37 24 37.448 24 38 24 38.552 24.447 39 25 39L47 39C47.552 39 48 38.552 48 38 48 37.448 47.552 37 47 37L25 37zM72 76C71.447 76 71 76.448 71 77 71 77.552 71.447 78 72 78L85 78C85.552 78 86 77.552 86 77 86 76.448 85.552 76 85 76L72 76zM25 28C24.447 28 24 28.448 24 29 24 29.552 24.447 30 25 30L38 30C38.552 30 39 29.552 39 29 39 28.448 38.552 28 38 28L25 28z"/>
    <path fill="#FABD71" d="M45,80 L45,56.123 C45,54.398 46.32905,53 47.96685,53 L63.88885,53 C63.9259648,53 63.9630193,53.000636 64,53.001902 L64,75 C64,77.7614237 61.7614237,80 59,80 L45,80 Z"/>
    <path stroke="#66747C" stroke-linecap="round" stroke-linejoin="round" stroke-width="2" d="M108.308,101 L48.123,101 C46.399,101 45,99.602 45,97.877 L45,57.123 C45,55.398 46.399,54 48.123,54 L64.883,54 C65.838,54 66.755,54.38 67.43,55.055 L74.123,60.359 L107.115,60.359 C109.498,60.359 111.43,61.291 111.43,63.674 L111.43,97.877 C111.43,99.602 110.033,101 108.308,101 Z"/>
    <path stroke="#66747C" stroke-width="2" d="M15,11 C12.790861,11 11,12.790861 11,15 L11,76 C11,78.209139 12.790861,80 15,80 L60,80 C62.209139,80 64,78.209139 64,76 L64,15 C64,12.790861 62.209139,11 60,11 L15,11 Z"/>
    <path fill="#C2C7CB" d="M0 12C0 12.55.45 13 1 13L5 13C5.55 13 6 12.55 6 12 6 11.45 5.55 11 5 11L1 11C.45 11 0 11.45 0 12M11 1L11 5C11 5.55 11.45 6 12 6 12.55 6 13 5.55 13 5L13 1C13 .45 12.55 0 12 0 11.45 0 11 .45 11 1M3.29175 3.29175C2.90275 3.68075 2.90275 4.31675 3.29175 4.70575L6.11975 7.53475C6.50975 7.92375 7.14575 7.92375 7.53475 7.53475 7.92375 7.14575 7.92375 6.50875 7.53475 6.12075L4.70575 3.29175C4.31675 2.90275 3.68075 2.90275 3.29175 3.29175"/>
  </g>
</svg>
