<?xml version="1.0" encoding="UTF-8" standalone="no"?>
<svg width="22px" height="22px" viewBox="0 0 22 22" version="1.1" xmlns="http://www.w3.org/2000/svg" xmlns:xlink="http://www.w3.org/1999/xlink" xmlns:sketch="http://www.bohemiancoding.com/sketch/ns">
    <!-- Generator: Sketch 3.4.4 (17249) - http://www.bohemiancoding.com/sketch -->
    <title>related-eye</title>
    <desc>Created with Sketch.</desc>
    <defs></defs>
    <g id="SVGs---Pixel-Perfect" stroke="none" stroke-width="1" fill-rule="evenodd" sketch:type="MSPage">
        <g id="SVGs" sketch:type="MSArtboardGroup" transform="translate(-262.000000, -337.000000)"></g>
        <g id="related-eye" sketch:type="MSArtboardGroup">
            <path d="M10.9998,17 C7.06149101,17 3.58910899,13.007 2.41791573,11.499 C3.58616629,9.99 7.04972022,6 10.9998,6 C14.938109,6 18.410491,9.993 19.5816843,11.501 C18.4134337,13.01 14.9498798,17 10.9998,17 L10.9998,17 L10.9998,17 Z M21.6170494,10.933 C21.4247933,10.649 16.8645944,4 10.9998,4 C5.13500562,4 0.574806742,10.649 0.382550562,10.933 L0,11.5 L0.382550562,12.067 C0.574806742,12.351 5.13500562,19 10.9998,19 C16.8645944,19 21.4247933,12.351 21.6170494,12.067 L21.9996,11.5 L21.6170494,10.933 L21.6170494,10.933 Z M10.9998,14 C9.64812135,14 8.54755281,12.878 8.54755281,11.5 C8.54755281,10.121 9.64812135,9 10.9998,9 C12.3524596,9 13.4520472,10.121 13.4520472,11.5 C13.4520472,12.878 12.3524596,14 10.9998,14 M10.9998,8 C9.10372247,8 7.56665393,9.567 7.56665393,11.5 C7.56665393,13.433 9.10372247,15 10.9998,15 C12.8958775,15 14.4329461,13.433 14.4329461,11.5 C14.4329461,9.567 12.8958775,8 10.9998,8" id="Fill-1" sketch:type="MSShapeGroup"></path>
        </g>
    </g>
</svg>