<svg xmlns="http://www.w3.org/2000/svg" xmlns:xlink="http://www.w3.org/1999/xlink" width="66" height="114" viewBox="0 0 66 114"><defs><path id="a" d="M.54.469h3v3h-3v-3z"/></defs><g fill="none" fill-rule="evenodd"><path fill="#E0E3E5" d="M16.008 112.53V70.9H5V55.91h11.01v-12.8c0-10.061 6.501-19.3 21.484-19.3 6.067 0 10.553.582 10.553.582l-.353 13.997s-4.576-.044-9.568-.044c-5.403 0-6.268 2.49-6.268 6.622V55.91h16.265l-.709 14.99H31.857v41.63H16.008z"/><path stroke="#E0E3E5" stroke-width="2" d="M16.008 112.53V70.9H5V55.91h11.01v-12.8c0-10.061 6.501-19.3 21.484-19.3 6.067 0 10.553.582 10.553.582l-.353 13.997s-4.576-.044-9.568-.044c-5.403 0-6.268 2.49-6.268 6.622V55.91h16.265l-.709 14.99H31.857v41.63H16.008z"/><path fill="#FFF" d="M12.008 109.53V67.9H1V52.91h11.01v-12.8c0-10.061 6.501-19.3 21.484-19.3 6.067 0 10.553.582 10.553.582l-.353 13.997s-4.576-.044-9.568-.044c-5.403 0-6.268 2.49-6.268 6.622V52.91h16.265l-.709 14.99H27.857v41.63H12.008z"/><path stroke="#66747C" stroke-linecap="round" stroke-linejoin="round" stroke-width="2" d="M12.008 109.53V67.9H1V52.91h11.01v-12.8c0-10.061 6.501-19.3 21.484-19.3 6.067 0 10.553.582 10.553.582l-.353 13.997s-4.576-.044-9.568-.044c-5.403 0-6.268 2.49-6.268 6.622V52.91h16.265l-.709 14.99H27.857v41.63H12.008z"/><path stroke="#C2C7CB" stroke-linecap="round" stroke-width="2" d="M53.563 12.956h5.362m-2.68 2.681v-5.363"/><path fill="#C2C7CB" d="M57.54 25.377a1.5 1.5 0 1 1-3 0 1.5 1.5 0 0 1 3 0m-16-16a1.5 1.5 0 1 1-3 0 1.5 1.5 0 0 1 3 0"/><g transform="translate(62 -.469)"><mask id="b" fill="#fff"><use xlink:href="#a"/></mask><path fill="#C2C7CB" d="M3.54 1.968a1.5 1.5 0 1 1-3 0 1.5 1.5 0 0 1 3 0" mask="url(#b)"/></g><path d="M-36-2H83v119H-36z"/></g></svg>