<svg xmlns="http://www.w3.org/2000/svg" xmlns:xlink="http://www.w3.org/1999/xlink" width="34" height="34" viewBox="0 0 34 34">
  <defs>
    <path id="inbound-copy-a" d="M22.25,17 L17,17 L17,12 L18.7474976,13.75 L21.5426406,10.956854 C21.9334584,10.5668208 22.5664285,10.5669339 22.9568541,10.9573595 L23.0428932,11.0428932 C23.4334175,11.4334175 23.4334175,12.0665825 23.0428932,12.4571068 L20.25,15.25 L22.25,17 Z M17.7456055,21.6804199 L19.6909242,19.7351012 L22.9157841,22.9599612 L21.2062616,24.6694837 C18.317758,24.6556134 14.8298502,23.1850747 12.6279297,20.9831543 C10.4260092,18.7812337 9.017338,15.5980262 9,12.7095225 L10.7095225,11 L13.9343825,14.22486 L11.9890638,16.1701788 C12.4259803,17.2173913 13.3838646,18.5142292 14.2403597,19.3707242 C15.0933872,20.2272193 16.6983928,21.2435035 17.7456055,21.6804199 Z"/>
  </defs>
  <g fill="none" fill-rule="evenodd">
    <use fill="#20455E" fill-rule="nonzero" xlink:href="#inbound-copy-a"/>
  </g>
</svg>
