<svg xmlns="http://www.w3.org/2000/svg" width="22" height="22" viewBox="0 0 22 22">
  <g fill="none" fill-rule="evenodd">
    <path stroke="currentColor" d="M16.5,14.5 C15.3954305,14.5 14.5,15.3954305 14.5,16.5 C14.5,17.6045695 15.3954305,18.5 16.5,18.5 C17.6045695,18.5 18.5,17.6045695 18.5,16.5 C18.5,15.3954305 17.6045695,14.5 16.5,14.5 Z M6.5,14.5 C5.3954305,14.5 4.5,15.3954305 4.5,16.5 C4.5,17.6045695 5.3954305,18.5 6.5,18.5 C7.6045695,18.5 8.5,17.6045695 8.5,16.5 C8.5,15.3954305 7.6045695,14.5 6.5,14.5 Z M11.5,2.5 C10.3954305,2.5 9.5,3.3954305 9.5,4.5 C9.5,5.6045695 10.3954305,6.5 11.5,6.5 C12.6045695,6.5 13.5,5.6045695 13.5,4.5 C13.5,3.3954305 12.6045695,2.5 11.5,2.5 Z"/>
    <path fill="currentColor" d="M7.00439453,14.5320185 L6.00439453,14.5320185 L6.00439453,11.5 C6.00439453,10.1192881 7.03628031,9 8.41699219,9 L14.6704229,9 C16.0511347,9 17.012085,10.1192881 17.012085,11.5 L17.012085,14.6150174 L16.012085,14.6150174 L16.012085,11.5 C16.012085,10.6715729 15.49885,10 14.6704229,10 L8.41699219,10 C7.58856506,10 7.00439453,10.6715729 7.00439453,11.5 L7.00439453,14.5320185 Z"/>
    <rect width="1" height="3" x="11" y="6" fill="currentColor"/>
  </g>
</svg>
