<?xml version="1.0" encoding="UTF-8"?>
<svg width="31px" height="31px" viewBox="0 0 31 31" version="1.1" xmlns="http://www.w3.org/2000/svg" xmlns:xlink="http://www.w3.org/1999/xlink">
    <!-- Generator: Sketch 49.3 (51167) - http://www.bohemiancoding.com/sketch -->
    <title>Priority - new</title>
    <desc>Created with Sketch.</desc>
    <defs></defs>
    <g id="Priority---new" stroke="none" stroke-width="1" fill="none" fill-rule="evenodd">
        <rect id="Rectangle-13" fill="currentColor" x="9" y="7" width="2" height="17" rx="1"></rect>
        <path d="M10.9850056,11 L10.9850056,18 L18.9892838,18 L17.7128196,16.3314923 C16.8871296,15.2522062 16.8871296,13.7477938 17.7128196,12.6685077 L18.9892838,11 L10.9850056,11 Z M9.99250282,9 L21.0074485,9 C21.5555927,9 21.9999513,9.44771525 21.9999513,10 C21.9999513,10.2208842 21.9273671,10.4355531 21.7935288,10.6104974 L19.2849802,13.8895026 C19.0097502,14.2492646 19.0097502,14.7507354 19.2849802,15.1104974 L21.7935288,18.3895026 C22.1281694,18.8269221 22.0475091,19.4548498 21.6133689,19.7920182 C21.4397362,19.9268675 21.2266767,20 21.0074485,20 L9.99250282,20 C9.44435865,20 9,19.5522847 9,19 L9,10 C9,9.44771525 9.44435865,9 9.99250282,9 Z" id="Rectangle-17" fill="currentColor" fill-rule="nonzero"></path>
    </g>
</svg>
