<?xml version="1.0" encoding="UTF-8"?>
<svg width="31px" height="31px" viewBox="0 0 31 31" version="1.1" xmlns="http://www.w3.org/2000/svg" xmlns:xlink="http://www.w3.org/1999/xlink">
    <!-- Generator: Sketch 49.3 (51167) - http://www.bohemiancoding.com/sketch -->
    <title>Reply - New</title>
    <desc>Created with Sketch.</desc>
    <defs>
        <path d="M20.0260279,13.7943515 L17.3471337,13.7943515 C16.8071326,13.7943515 16.3693753,13.3565942 16.3693753,12.8165931 C16.3693753,12.2765921 16.8071326,11.8388348 17.3471337,11.8388348 L20.3950615,11.8388348 L22.4079045,11.8388348 C22.4079045,11.8396175 22.4079044,11.8404001 22.4079042,11.8411828 C22.9279696,11.8766608 23.3388348,12.3097664 23.3388348,12.8388348 L23.3388348,17.6888457 C23.3388348,18.2446769 22.8882445,18.6952672 22.3324132,18.6952672 C21.776582,18.6952672 21.3259917,18.2446769 21.3259917,17.6888457 L21.3259917,15.6817356 C19.8652751,18.1334605 17.0943617,19.8388348 14.0673131,19.8388348 C10.9349652,19.8388348 7.66641297,18.0933351 6.33883476,15.396387 L8.1547094,14.5527092 C9.15091508,16.5764808 11.7174318,17.883318 14.0673131,17.883318 C16.7042599,17.883318 19.1272489,16.1299778 20.0260279,13.7943515 Z" id="path-1"></path>
    </defs>
    <g id="Reply---New" stroke="none" stroke-width="1" fill="none" fill-rule="evenodd">
        <mask id="mask-2" fill="white">
            <use xlink:href="#path-1"></use>
        </mask>
        <use id="Mask" fill="#3899EC" fill-rule="nonzero" transform="translate(14.838835, 15.838835) scale(-1, 1) rotate(-135.000000) translate(-14.838835, -15.838835) " xlink:href="#path-1"></use>
    </g>
</svg>
