<?xml version="1.0" encoding="UTF-8" standalone="no"?>
<svg width="26px" height="26px" viewBox="0 0 26 26" version="1.1" xmlns="http://www.w3.org/2000/svg" xmlns:xlink="http://www.w3.org/1999/xlink">
    <!-- Generator: Sketch 43.2 (39069) - http://www.bohemiancoding.com/sketch -->
    <title>Settings</title>
    <desc>Created with Sketch.</desc>
    <defs></defs>
    <g id="Page-1" stroke="none" stroke-width="1" fill-rule="evenodd">
        <g id="Settings">
            <path d="M22.802,11.583 L24.002,11.583 C24.553,11.583 25,12.03 25,12.581 L25,14.419 C25,14.97 24.553,15.417 24.002,15.417 L22.802,15.417 C22.564,15.417 22.365,15.58 22.305,15.81 C22.092,16.62 21.77,17.384 21.356,18.09 C21.236,18.295 21.262,18.552 21.43,18.72 L22.281,19.571 C22.671,19.96 22.671,20.592 22.281,20.982 L20.982,22.281 C20.592,22.671 19.96,22.671 19.571,22.281 L18.72,21.43 C18.552,21.262 18.295,21.236 18.09,21.356 C17.385,21.77 16.62,22.092 15.81,22.304 C15.581,22.365 15.417,22.564 15.417,22.802 L15.417,24.002 C15.417,24.553 14.97,25 14.419,25 L12.581,25 C12.03,25 11.583,24.553 11.583,24.002 L11.583,22.802 C11.583,22.564 11.42,22.365 11.19,22.304 C10.38,22.092 9.615,21.77 8.91,21.356 C8.705,21.236 8.448,21.262 8.28,21.43 L7.429,22.281 C7.04,22.671 6.408,22.671 6.018,22.281 L4.718,20.982 C4.329,20.592 4.329,19.961 4.719,19.571 L5.57,18.72 C5.738,18.552 5.764,18.295 5.644,18.09 C5.23,17.384 4.908,16.62 4.695,15.81 C4.635,15.58 4.436,15.417 4.198,15.417 L2.998,15.417 C2.447,15.417 2,14.97 2,14.419 L2,12.581 C2,12.03 2.447,11.583 2.998,11.583 L4.198,11.583 C4.436,11.583 4.635,11.42 4.695,11.19 C4.908,10.38 5.23,9.615 5.644,8.91 C5.764,8.705 5.738,8.448 5.57,8.28 L4.719,7.429 C4.329,7.039 4.329,6.408 4.719,6.018 L6.018,4.719 C6.408,4.329 7.04,4.329 7.429,4.719 L8.28,5.57 C8.448,5.738 8.705,5.764 8.91,5.644 C9.615,5.23 10.379,4.908 11.189,4.696 C11.419,4.635 11.583,4.435 11.583,4.197 L11.583,2.999 C11.583,2.447 12.031,2 12.583,2 L14.417,2 C14.969,2 15.417,2.448 15.417,3 L15.417,4.197 C15.417,4.435 15.581,4.635 15.811,4.696 C16.621,4.908 17.385,5.23 18.09,5.644 C18.295,5.764 18.552,5.738 18.72,5.57 L19.571,4.719 C19.96,4.329 20.592,4.329 20.982,4.719 L22.281,6.018 C22.671,6.408 22.671,7.039 22.281,7.429 L21.43,8.28 C21.262,8.448 21.236,8.705 21.356,8.91 C21.77,9.615 22.092,10.38 22.304,11.19 C22.365,11.419 22.564,11.583 22.802,11.583 Z M13.5,19 C16.5323333,19 19,16.5323333 19,13.5 C19,10.4676667 16.5323333,8 13.5,8 C10.4676667,8 8,10.4676667 8,13.5 C8,16.5323333 10.4676667,19 13.5,19 Z M13.5,11 C14.8808333,11 16,12.1191667 16,13.5 C16,14.8808333 14.8808333,16 13.5,16 C12.1191667,16 11,14.8808333 11,13.5 C11,12.1191667 12.1191667,11 13.5,11 Z" id="Combined-Shape"></path>
        </g>
    </g>
</svg>