<?xml version="1.0" encoding="UTF-8" standalone="no"?>
<svg width="26px" height="26px" viewBox="0 0 26 26" version="1.1" xmlns="http://www.w3.org/2000/svg" xmlns:xlink="http://www.w3.org/1999/xlink">
    <!-- Generator: Sketch 43.2 (39069) - http://www.bohemiancoding.com/sketch -->
    <title>Home</title>
    <desc>Created with Sketch.</desc>
    <defs></defs>
    <g id="Page-1" stroke="none" stroke-width="1" fill-rule="evenodd">
        <g id="Home">
            <path d="M23.8739,14.4297 L12.9999,4.3547 L2.1269,14.4297 L0.7679,12.9627 L12.3199,2.2587 C12.7029,1.9027 13.2969,1.9027 13.6799,2.2587 L25.2329,12.9627 L23.8739,14.4297 Z M12.3269,7.636 C12.7099,7.284 13.2989,7.284 13.6819,7.636 L21.6779,15.002 C21.8829,15.192 21.9999,15.458 21.9999,15.738 L21.9999,22.999 C21.9999,23.552 21.5519,23.999 20.9999,23.999 L16.9999,23.999 C16.4479,23.999 15.9999,23.552 15.9999,22.999 L15.9999,18.999 C15.9999,18.447 15.5519,17.999 14.9999,17.999 L10.9999,17.999 C10.4479,17.999 9.9999,18.447 9.9999,18.999 L9.9999,22.999 C9.9999,23.552 9.5519,23.999 8.9999,23.999 L4.9999,23.999 C4.4479,23.999 3.9999,23.552 3.9999,22.999 L3.9999,15.738 C3.9999,15.458 4.1169,15.192 4.3229,15.002 L12.3269,7.636 Z" id="Combined-Shape"></path>
        </g>
    </g>
</svg>