<svg xmlns="http://www.w3.org/2000/svg" width="26" height="26" viewBox="0 0 26 26">
  <g fill-rule="evenodd" transform="translate(3 4)">
    <path d="M0 1C0 .45.428571429 0 .952380952 0L19.047619 0C19.5714286 0 20 .45 20 1L20 12C20 12.55 19.5714286 13 19.047619 13L.952380952 13C.428571429 13 0 12.55 0 12L0 1zM15.0769231 17L4.92307692 17C4.41261538 17 4 16.552 4 16 4 15.448 4.41261538 15 4.92307692 15L15.0769231 15C15.5873846 15 16 15.448 16 16 16 16.552 15.5873846 17 15.0769231 17"/>
  </g>
</svg>
