<svg xmlns="http://www.w3.org/2000/svg" width="120" height="122" viewBox="0 0 120 122">
  <g fill="none" fill-rule="evenodd" transform="translate(0 1)">
    <path fill="#FFF" d="M90.9023,118.5 L25.0973,118.5 C22.2823,118.5 20.0003,116.217 20.0003,113.402 L20.0003,31.598 C20.0003,28.783 22.2823,26.5 25.0973,26.5 L90.9023,26.5 C93.7173,26.5 96.0003,28.783 96.0003,31.598 L96.0003,113.402 C96.0003,116.217 93.7173,118.5 90.9023,118.5"/>
    <path fill="#E0E3E5" d="M92,62.5 C84.268,62.5 78,68.768 78,76.5 C78,84.232 84.268,90.5 92,90.5 C92.681,90.5 93.346,90.435 94,90.341 L94,62.659 C93.346,62.565 92.681,62.5 92,62.5"/>
    <path fill="#66747C" d="M94,31.5 L94,115.5 C94,117.157 92.657,118.5 91,118.5 L24,118.5 C22.343,118.5 21,117.157 21,115.5 L21,31.5 C21,29.843 22.343,28.5 24,28.5 L91,28.5 C92.657,28.5 94,29.843 94,31.5 Z M96,31.5 C96,28.739 93.762,26.5 91,26.5 L83,26.5 L67,26.5 L24,26.5 C21.238,26.5 19,28.739 19,31.5 L19,115.5 C19,118.261 21.238,120.5 24,120.5 L91,120.5 C93.762,120.5 96,118.261 96,115.5 L96,31.5 Z"/>
    <path fill="#66747C" d="M41.374 82.5L74.374 82.5C74.927 82.5 75.374 82.052 75.374 81.5 75.374 80.948 74.927 80.5 74.374 80.5L41.374 80.5C40.822 80.5 40.374 80.948 40.374 81.5 40.374 82.052 40.822 82.5 41.374 82.5M74.374 70.5L41.374 70.5C40.821 70.5 40.374 70.948 40.374 71.5 40.374 72.052 40.821 72.5 41.374 72.5L74.374 72.5C74.926 72.5 75.374 72.052 75.374 71.5 75.374 70.948 74.926 70.5 74.374 70.5M57.374 60.5L41.374 60.5C40.821 60.5 40.374 60.948 40.374 61.5 40.374 62.052 40.821 62.5 41.374 62.5L57.374 62.5C57.926 62.5 58.374 62.052 58.374 61.5 58.374 60.948 57.926 60.5 57.374 60.5"/>
    <path fill="#FABD71" d="M118.125,11.375 C112.326,11.375 107.625,6.674 107.625,0.875 C107.625,0.392 107.233,0 106.75,0 C106.267,0 105.875,0.392 105.875,0.875 C105.875,6.674 101.174,11.375 95.375,11.375 C94.892,11.375 94.5,11.767 94.5,12.25 C94.5,12.733 94.892,13.125 95.375,13.125 C101.174,13.125 105.875,17.826 105.875,23.625 C105.875,24.108 106.267,24.5 106.75,24.5 C107.233,24.5 107.625,24.108 107.625,23.625 C107.625,17.826 112.326,13.125 118.125,13.125 C118.608,13.125 119,12.733 119,12.25 C119,11.767 118.608,11.375 118.125,11.375"/>
    <path stroke="#66747C" stroke-width="2" d="M118.125,11.375 C112.326,11.375 107.625,6.674 107.625,0.875 C107.625,0.392 107.233,0 106.75,0 C106.267,0 105.875,0.392 105.875,0.875 C105.875,6.674 101.174,11.375 95.375,11.375 C94.892,11.375 94.5,11.767 94.5,12.25 C94.5,12.733 94.892,13.125 95.375,13.125 C101.174,13.125 105.875,17.826 105.875,23.625 C105.875,24.108 106.267,24.5 106.75,24.5 C107.233,24.5 107.625,24.108 107.625,23.625 C107.625,17.826 112.326,13.125 118.125,13.125 C118.608,13.125 119,12.733 119,12.25 C119,11.767 118.608,11.375 118.125,11.375 Z"/>
    <path fill="#FFF" d="M110,73.5 C110,81.232 103.732,87.5 96,87.5 C88.268,87.5 82,81.232 82,73.5 C82,65.768 88.268,59.5 96,59.5 C103.732,59.5 110,65.768 110,73.5"/>
    <path stroke="#66747C" stroke-width="2" d="M110,73.5 C110,81.232 103.732,87.5 96,87.5 C88.268,87.5 82,81.232 82,73.5 C82,65.768 88.268,59.5 96,59.5 C103.732,59.5 110,65.768 110,73.5 Z"/>
    <polygon fill="#66747C" points="102 72.5 97 72.5 97 67.5 95 67.5 95 72.5 90 72.5 90 74.5 95 74.5 95 79.5 97 79.5 97 74.5 102 74.5"/>
    <path stroke="#C2C7CB" stroke-linecap="round" stroke-width="2" d="M6.0234 37.4561L11.3854 37.4561M8.7051 40.1377L8.7051 34.7747"/>
    <path fill="#C2C7CB" d="M3 25C3 25.829 2.328 26.5 1.5 26.5.672 26.5 0 25.829 0 25 0 24.171.672 23.5 1.5 23.5 2.328 23.5 3 24.171 3 25M16 14C16 14.829 15.328 15.5 14.5 15.5 13.672 15.5 13 14.829 13 14 13 13.171 13.672 12.5 14.5 12.5 15.328 12.5 16 13.171 16 14M103 30C103 30.829 102.328 31.5 101.5 31.5 100.672 31.5 100 30.829 100 30 100 29.171 100.672 28.5 101.5 28.5 102.328 28.5 103 29.171 103 30"/>
    <path stroke="#C2C7CB" stroke-linecap="round" stroke-width="2" d="M104.0234 36.4561L109.3854 36.4561M106.7051 39.1377L106.7051 33.7747"/>
  </g>
</svg>
