<svg xmlns="http://www.w3.org/2000/svg" width="22" height="22" viewBox="0 0 22 22">
  <path fill="#20455E" fill-rule="evenodd" d="M17.0161061,10.596825 L14.5908929,7.84674479 C14.3993914,7.64779311 14.4054309,7.33126823 14.6043826,7.13976669 C14.8033343,6.94826515 15.1198591,6.95430468 15.3113607,7.15325636 L18.7822847,11.1512335 L15.3113607,15.0289423 C15.1198591,15.227894 14.8033343,15.2339335 14.6043826,15.0424319 C14.4054309,14.8509304 14.3993914,14.5344055 14.5908929,14.3354538 L17.0972266,11.596825 L9,11.596825 L9,10.596825 L17.0161061,10.596825 Z M5,10.596825 L7,10.596825 L7,11.596825 L5,11.596825 L5,10.596825 Z M2,10.596825 L3,10.596825 L3,11.596825 L2,11.596825 L2,10.596825 Z"/>
</svg>
