<svg xmlns="http://www.w3.org/2000/svg" xmlns:xlink="http://www.w3.org/1999/xlink" width="150" height="150" viewBox="0 0 150 150">
  <defs>
    <path id="route-call-a" d="M39.5933956,47.4426514 C34.8524195,45.4609513 27.5861849,40.8514414 23.7243305,36.966679 C19.8467774,33.0819171 15.5102118,27.1999137 13.5321889,22.4501238 L20.2236843,15.746187 C21.3926314,14.5750664 21.3926314,12.6786091 20.2236843,11.5074886 L9.86269667,1.12723734 C8.69221241,-0.0454231359 6.79271829,-0.0471873096 5.62005781,1.12329695 C5.61874313,1.12460919 5.61742966,1.12592266 5.61611742,1.12723734 L0,6.75379651 C0.0784931695,19.8550396 6.45587617,34.2929562 16.4244838,44.2800984 C26.3930914,54.2672396 42.1836634,60.9370892 55.260593,61 L60.8845839,55.3655527 C62.053531,54.1944322 62.053531,52.2979748 60.8845839,51.1268543 L50.5235968,40.7466031 C49.3531125,39.5739427 47.4536184,39.5721784 46.2809579,40.7426627 C46.2796432,40.7439749 46.2783297,40.7452884 46.2770175,40.7466031 L39.5933956,47.4426514 Z"/>
    <path id="route-call-b" d="M37.5933956,42.4426514 C32.8524195,40.4609513 25.5861849,35.8514414 21.7243305,31.966679 C17.8467774,28.0819171 13.5102118,22.1999137 11.5321889,17.4501238 L18.2236843,10.746187 C19.3926314,9.57506643 19.3926314,7.67860906 18.2236843,6.50748856 L7.86269667,-3.87276266 C6.69221241,-5.04542314 4.79271829,-5.04718731 3.62005781,-3.87670305 C3.61874313,-3.87539081 3.61742966,-3.87407734 3.61611742,-3.87276266 L-2,1.75379651 C-1.92150683,14.8550396 4.45587617,29.2929562 14.4244838,39.2800984 C24.3930914,49.2672396 40.1836634,55.9370892 53.260593,56 L58.8845839,50.3655527 C60.053531,49.1944322 60.053531,47.2979748 58.8845839,46.1268543 L48.5235968,35.7466031 C47.3531125,34.5739427 45.4536184,34.5721784 44.2809579,35.7426627 C44.2796432,35.7439749 44.2783297,35.7452884 44.2770175,35.7466031 L37.5933956,42.4426514 Z"/>
  </defs>
  <g fill="none" fill-rule="evenodd" transform="translate(43 40)">
    <g transform="translate(0 8)">
      <use fill="#CBD2D9" fill-rule="nonzero" xlink:href="#route-call-a"/>
      <use fill="#FFF" fill-rule="nonzero" stroke="#66747C" stroke-width="2" xlink:href="#route-call-b"/>
    </g>
    <path fill="#FABD71" fill-rule="nonzero" stroke="#66747C" stroke-width="2" d="M20.9553722,3 L20.8767632,-1.50350924 L35.2348897,5.364987 L21.1252168,12.7303905 L21.0426475,8 L5.58419245,8 C4.75576532,8 4.08419245,8.67157288 4.08419245,9.5 L4.08419245,30.6043925 C4.08419245,31.9851044 2.96490432,33.1043925 1.58419245,33.1043925 C0.203480574,33.1043925 -0.915807552,31.9851044 -0.915807552,30.6043925 L-0.915807552,9.5 C-0.915807552,5.91014913 1.99434157,3 5.58419245,3 L20.9553722,3 Z" transform="translate(33)"/>
  </g>
</svg>
