<?xml version="1.0" encoding="UTF-8"?>
<svg width="25px" height="25px" viewBox="0 0 25 25" version="1.1" xmlns="http://www.w3.org/2000/svg" xmlns:xlink="http://www.w3.org/1999/xlink">
    <!-- Generator: Sketch 47.1 (45422) - http://www.bohemiancoding.com/sketch -->
    <title>System_action</title>
    <desc>Created with Sketch.</desc>
    <defs></defs>
    <g id="Page-1" stroke="none" stroke-width="1" fill-rule="evenodd">
        <g id="Notifiaction-types" transform="translate(-1110.000000, -214.000000)" fill-rule="nonzero">
            <g id="System_action" transform="translate(1111.000000, 215.000000)">
                <path d="M17.491482,1.10056001 C15.6844576,0.0573153891 13.6322724,-0.5 11.5,-0.5 C4.872583,-0.5 -0.5,4.872583 -0.5,11.5 C-0.5,18.127417 4.872583,23.5 11.5,23.5 C16.4867733,23.5 20.8995655,20.4298559 22.6826046,15.8615867 C23.2205195,14.4834116 23.5,13.0106379 23.5,11.5 C23.5,10.3631918 23.3417676,9.24696375 23.0332075,8.17487077 C22.9568311,7.90950074 22.6797909,7.75629112 22.4144209,7.83266751 C22.1490508,7.90904391 21.9958412,8.18608413 22.0722176,8.45145417 C22.3549638,9.43385687 22.5,10.4569939 22.5,11.5 C22.5,12.885734 22.2439112,14.2352408 21.7510477,15.4979912 C20.1165824,19.6856042 16.0713832,22.5 11.5,22.5 C5.42486775,22.5 0.5,17.5751322 0.5,11.5 C0.5,5.42486775 5.42486775,0.5 11.5,0.5 C13.4555594,0.5 15.3354899,1.0105359 16.9914969,1.966594 C17.2306456,2.10466108 17.5364393,2.02271825 17.6745064,1.78356956 C17.8125735,1.54442088 17.7306307,1.23862708 17.491482,1.10056001 Z" id="Oval-Copy-53"></path>
                <path d="M10,8.8316655 L10,14.1683345 L14.1507426,11.5 L10,8.8316655 Z M16,11.5 L9,16 L9,7 L16,11.5 Z" id="Triangle-2"></path>
            </g>
        </g>
    </g>
</svg>