<svg xmlns="http://www.w3.org/2000/svg" xmlns:xlink="http://www.w3.org/1999/xlink" width="34" height="34" viewBox="0 0 34 34">
    <defs>
        <path id="a" d="M9.004 13.998C12.783 14.096 14 11 14 11H4s.91 3.096 5.004 2.998zM6.506 9a1.5 1.5 0 1 0-.001-2.999A1.5 1.5 0 0 0 6.506 9zM9 18A9 9 0 1 1 9 0a9 9 0 0 1 0 18zm0-2A7 7 0 1 0 9 2a7 7 0 0 0 0 14zm2.502-7a1.5 1.5 0 1 1 .001-2.999 1.5 1.5 0 0 1 0 2.999z"/>
    </defs>
    <g fill="none" fill-rule="evenodd" transform="translate(8 8)">
        <mask id="b" fill="#fff">
            <use xlink:href="#a"/>
        </mask>
        <use fill="#577083" xlink:href="#a"/>
        <g fill="#577083" mask="url(#b)">
            <path d="M-8-8h34v34H-8z"/>
        </g>
    </g>
</svg>
