<svg xmlns="http://www.w3.org/2000/svg" width="77" height="80" viewBox="0 0 77 80">
    <g fill="none" fill-rule="evenodd">
        <path fill="#E0E3E5" d="M44.625 30.703h16.917v-4.098a2.822 2.822 0 0 0-2.822-2.822H40.78v3.075a3.845 3.845 0 0 0 3.845 3.845"/>
        <path fill="#FFF" d="M5.078 77.641c-1.7 0-3.078-1.378-5.078-3.078L2 3.792C2 2.092 3.378.714 5.078.714h36.057c.942 0 1.846.374 2.511 1.04l16.856 16.855a3.548 3.548 0 0 1 1.04 2.511v53.443c0 1.7-1.377 3.078-3.078 3.078H5.078z"/>
        <path stroke="#66747C" stroke-linecap="round" stroke-linejoin="round" stroke-width="2" d="M19 50h21.582M19 36h11.899M19 43h17.92"/>
        <path fill="#3899EC" d="M63 22H44.316a3.254 3.254 0 0 1-3.253-3.254V.392"/>
        <path stroke="#66747C" stroke-linecap="square" stroke-linejoin="round" stroke-width="2" d="M61.546 22.028H44.652a3.455 3.455 0 0 1-3.454-3.455V1.67"/>
        <path stroke="#66747C" stroke-linecap="round" stroke-linejoin="round" stroke-width="2" d="M58.885 78.06H5.105a3.1 3.1 0 0 1-3.1-3.1L2 4.1A3.1 3.1 0 0 1 5.1 1h36.328c.949 0 1.859.377 2.53 1.047l16.975 16.976a3.573 3.573 0 0 1 1.047 2.53l.005 53.407a3.1 3.1 0 0 1-3.1 3.1z"/>
        <path fill="#E0E3E5" d="M59 37c-7.732 0-14 6.268-14 14s6.268 14 14 14c.681 0 1.346-.065 2-.159V37.159A14.017 14.017 0 0 0 59 37"/>
        <path fill="#FFF" d="M75.488 48c0 7.732-6.268 14-14 14s-14-6.268-14-14 6.268-14 14-14 14 6.268 14 14"/>
        <path stroke="#66747C" stroke-width="2" d="M75.488 48c0 7.732-6.268 14-14 14s-14-6.268-14-14 6.268-14 14-14 14 6.268 14 14z"/>
        <path fill="#66747C" d="M67.488 47h-5v-5h-2v5h-5v2h5v5h2v-5h5z"/>
    </g>
</svg>
