<svg xmlns="http://www.w3.org/2000/svg" xmlns:xlink="http://www.w3.org/1999/xlink" width="34" height="34" viewBox="0 0 34 34">
    <defs>
        <path id="a" d="M5.455 19c-.805 0-1.48-.337-1.95-.805l-2.143-2.142c-1.816-1.815-1.816-3.895 0-5.71l4.286-4.281c.37-.372.878-.878 1.624-1.043.884-.192 1.776.159 2.662 1.043 2.141 2.14.641 3.64 0 4.28l-4.286 4.284-1.428-1.427 4.285-4.283c.66-.661.713-.713 0-1.427-.407-.408-.68-.518-.8-.498-.168.038-.424.293-.629.498L2.79 11.77c-1.027 1.027-1.027 1.828 0 2.856l2.144 2.14c.525.525 1.451-.024 2.142-.713l6.428-6.423c1.256-1.255-.288-3.142-2.142-4.996-1.857-1.853-3.745-3.394-5-2.141L2.077 6.775a1.011 1.011 0 0 1-1.428 0 1.009 1.009 0 0 1-.001-1.427l4.286-4.283c2.855-2.85 6.485.773 7.853 2.138 1.37 1.37 5.003 5 2.145 7.854L8.504 17.48C7.397 18.587 6.346 19 5.454 19"/>
    </defs>
    <g fill="none" fill-rule="evenodd" transform="translate(9 7)">
        <mask id="b" fill="#fff">
            <use xlink:href="#a"/>
        </mask>
        <use fill="#577082" xlink:href="#a"/>
        <g fill="#577083" mask="url(#b)">
            <path d="M-9-7h34v34H-9z"/>
        </g>
    </g>
</svg>
