<svg xmlns="http://www.w3.org/2000/svg" xmlns:xlink="http://www.w3.org/1999/xlink" width="32" height="32" viewBox="0 0 32 32">
  <defs>
    <path id="all-open-tickets-copy-a" d="M13.0069,19.801577 C13.0050708,19.8641526 13.0032405,19.9312381 13.0015663,20 L19.0034275,20 L19.0034275,18.9978351 C16.9161968,18.4106569 14.927794,18.6768718 13.0069,19.801577 Z M13.0221574,18.6536327 C14.936819,17.6774462 16.9374659,17.4460704 19.0026031,17.9630038 C18.9753713,16.8865993 18.2728192,16.0770488 16.7941169,15.4986299 L16.0100633,15.1919343 L15.2315275,15.4963654 C13.7229663,16.0862585 13.0222168,16.9166278 13.0222168,18.0253906 C13.0222168,18.2817111 13.0222053,18.4873683 13.0221574,18.6536327 Z M12.0012767,20 C12.0089409,19.6756527 12.0199699,19.3901823 12.0195483,19.4103994 C12.0219724,19.2941399 12.0222168,19.148517 12.0222168,18.0253906 C12.0222168,16.7964054 12.6278918,15.8138837 13.7875453,15.0961344 C12.6179109,14.5000576 12.0087178,13.5324054 12.0222168,12.2301899 L12.0222168,10 L11,10 L11,9 L21,9 L21,10 L20.0034275,10 L20.0034275,12.2313159 C20.0169265,13.5339853 19.4077334,14.5019749 18.238099,15.0982594 C19.3977526,15.8162588 20.0034275,16.799123 20.0034275,18.0285367 L20.0034275,20 L21,20 L21,21 L11,21 L11,20 L12.001273,20 Z M13.0222164,10 C13.0222153,10.845248 13.0222104,11.1118251 13.02219,12.2353647 C13.0099481,13.4181397 13.6830159,14.1639917 15.1736778,14.546382 L16.0167361,14.7626465 L16.8519666,14.5483153 C18.3426285,14.1657918 19.0156962,13.4196797 19.0034543,12.2364925 C19.0034339,11.1124068 19.003429,10.845818 19.0034279,10 L13.0222164,10 Z"/>
  </defs>
  <g fill="none" fill-rule="evenodd">
    <use fill="#000" fill-rule="nonzero" xlink:href="#all-open-tickets-copy-a"/>
  </g>
</svg>
