<svg xmlns="http://www.w3.org/2000/svg" xmlns:xlink="http://www.w3.org/1999/xlink" width="34" height="34" viewBox="0 0 34 34">
  <defs>
    <path id="api-copy-a" d="M17,6 L18,6 L18,8 L17,8 L17,11.5 C17,12.8807119 15.8807119,14 14.5,14 L13,14 L13,12 L14.5,12 C14.7761424,12 15,11.7761424 15,11.5 L15,2.5 C15,2.22385763 14.7761424,2 14.5,2 L13,2 L13,0 L14.5,0 C15.8807119,0 17,1.11928813 17,2.5 L17,6 Z M1,8 L0,8 L0,6 L1,6 L1,2.5 C1,1.11928813 2.11928813,0 3.5,0 L5,0 L5,2 L3.5,2 C3.22385763,2 3,2.22385763 3,2.5 L3,11.5 C3,11.7761424 3.22385763,12 3.5,12 L5,12 L5,14 L3.5,14 C2.11928813,14 1,12.8807119 1,11.5 L1,8 Z M5,4 L13,4 L13,6 L5,6 L5,4 Z M5,8 L11,8 L11,10 L5,10 L5,8 Z"/>
  </defs>
  <g fill="none" fill-rule="evenodd" transform="translate(8 10)">
    <use fill="#20455E" fill-rule="nonzero" xlink:href="#api-copy-a"/>
  </g>
</svg>
