<svg xmlns="http://www.w3.org/2000/svg" xmlns:xlink="http://www.w3.org/1999/xlink" width="20" height="20" viewBox="0 0 20 20">
  <defs>
    <path id="-article-copy-a" d="M5,0 L15,0 C16.6568542,-3.04359188e-16 18,1.34314575 18,3 L18,17 C18,18.6568542 16.6568542,20 15,20 L5,20 C3.34314575,20 2,18.6568542 2,17 L2,3 C2,1.34314575 3.34314575,3.04359188e-16 5,0 Z M5,1 C3.8954305,1 3,1.8954305 3,3 L3,17 C3,18.1045695 3.8954305,19 5,19 L15,19 C16.1045695,19 17,18.1045695 17,17 L17,3 C17,1.8954305 16.1045695,1 15,1 L5,1 Z M7,7 L10,7 L10,8 L7,8 L7,7 Z M7,10 L13,10 L13,11 L7,11 L7,10 Z M7,13 L13,13 L13,14 L7,14 L7,13 Z"/>
  </defs>
  <g fill-rule="evenodd">
    <use xlink:href="#-article-copy-a"/>
  </g>
</svg>
