<svg xmlns="http://www.w3.org/2000/svg" xmlns:xlink="http://www.w3.org/1999/xlink" width="14" height="14" viewBox="0 0 14 14">
  <defs>
    <path id="music-note-a" d="M14,0 L5,1.4 L5,10.5 C4.5,10.2 3.8,10 3,10 C1.3,10 0,10.9 0,12 C0,13.1 1.3,14 3,14 C4.7,14 6,13.1 6,12 L6,11.9 L6,2.3 L13,1.2 L13,9.5 C12.5,9.2 11.8,9 11,9 L11,9 C9.3,9 8,9.9 8,11 C8,12.1 9.3,13 11,13 C12.7,13 14,12.1 14,11 L14,11 L14,0 Z M3,13 C1.8,13 1,12.4 1,12 C1,11.6 1.8,11 3,11 C4.2,11 5,11.6 5,12 C5,12.4 4.2,13 3,13 Z M11,12 C9.8,12 9,11.4 9,11 C9,10.6 9.8,10 11,10 C12.2,10 13,10.6 13,11 C13,11.4 12.2,12 11,12 Z"/>
  </defs>
  <g fill="currentColor" fill-rule="evenodd">
    <use fill="currentColor" fill-rule="nonzero" xlink:href="#music-note-a"/>
  </g>
</svg>
