<svg xmlns="http://www.w3.org/2000/svg" width="53" height="54" viewBox="0 0 53 54">
    <g fill="none" fill-rule="evenodd">
        <path stroke="#FEDFBA" stroke-linecap="round" stroke-width="2" d="M15.6 49.56C6.97 45.473 1 36.683 1 26.5 1 12.417 12.417 1 26.5 1S52 12.417 52 26.5c0 10.118-5.893 18.86-14.434 22.98"/>
        <path fill="#FEDFBA" d="M47 26.5C47 37.822 37.822 47 26.5 47S6 37.822 6 26.5 15.178 6 26.5 6 47 15.178 47 26.5"/>
        <path fill="#FCFCFC" d="M37.64 26.433c0-6.206-5.191-11.21-11.501-10.97-5.707.217-10.366 4.81-10.62 10.47a10.87 10.87 0 0 0 1.849 6.589c2.004 2.976 3.138 6.446 3.138 10.026 0 1.597 1.305 2.89 2.913 2.89h6.31c1.609 0 2.914-1.293 2.914-2.89 0-3.516 1.013-6.981 3.032-9.872a10.86 10.86 0 0 0 1.965-6.243"/>
        <path stroke="#66747C" stroke-linecap="round" stroke-linejoin="round" stroke-width="2" d="M37.64 26.433c0-6.206-5.191-11.21-11.501-10.97-5.707.217-10.366 4.81-10.62 10.47a10.87 10.87 0 0 0 1.849 6.589c2.004 2.976 3.138 6.446 3.138 10.026 0 1.597 1.305 2.89 2.913 2.89h6.31c1.609 0 2.914-1.293 2.914-2.89 0-3.516 1.013-6.981 3.032-9.872a10.86 10.86 0 0 0 1.965-6.243z"/>
        <path stroke="#66747C" stroke-width="2" d="M27.875 53h-2.603c-.716 0-1.365-1.529-1.647-2.908h5.898C29.24 51.471 28.593 53 27.875 53z"/>
        <path stroke="#66747C" stroke-width="2" d="M29.827 50.092h-6.604a.408.408 0 0 1-.405-.351l-.615-4.302h8.643l-.615 4.302a.408.408 0 0 1-.404.35z"/>
        <path stroke="#66747C" d="M25.077 44.856V31.273c0-.688-.445-1.333-1.116-1.483a1.452 1.452 0 0 0-1.755 1.74c.15.67.796 1.11 1.481 1.11h5.687c.685 0 1.331-.44 1.481-1.11a1.452 1.452 0 0 0-1.755-1.74c-.67.15-1.115.795-1.115 1.483v13.583"/>
    </g>
</svg>
