<svg xmlns="http://www.w3.org/2000/svg" xmlns:xlink="http://www.w3.org/1999/xlink" width="34" height="34" viewBox="0 0 34 34">
  <defs>
    <path id="callback-copy-a" d="M17.6899393,13.2933833 L17.7334665,13.3786346 L19.0947998,15.6610175 L14.0174561,14.0349731 L15.6468381,9.28339564 L16.7680273,11.487751 L16.7799466,11.5110959 C18.3425352,10.659348 20.2379105,10.6294109 21.8404838,11.4815143 C24.4435488,12.8655884 25.4280377,16.1022816 24.0413395,18.7102815 C23.7545433,19.2496668 23.2228204,19.8748843 22.7167714,20.2860113 C22.4882141,20.4716971 21.8404838,20.4629517 21.4726172,20.0341365 C21.2847436,19.8151356 21.0913086,19.1566772 21.5697646,18.691886 C22.0482206,18.2270949 22.063137,18.1706304 22.2754443,17.7713383 C23.1441797,16.1374847 22.5281944,14.1123165 20.9015407,13.2474094 C19.8835709,12.7061453 18.6782258,12.7341145 17.6899393,13.2933834 Z M17.7456055,22.6804199 L19.6909242,20.7351012 L22.9157841,23.9599612 L21.2062616,25.6694837 C18.317758,25.6556134 14.8298502,24.1850747 12.6279297,21.9831543 C10.4260092,19.7812337 9.017338,16.5980262 9,13.7095225 L10.7095225,12 L13.9343825,15.22486 L11.9890638,17.1701788 C12.4259803,18.2173913 13.3838646,19.5142292 14.2403597,20.3707242 C15.0933872,21.2272193 16.6983928,22.2435035 17.7456055,22.6804199 Z"/>
  </defs>
  <g fill="none" fill-rule="evenodd">
    <use fill="#20455E" fill-rule="nonzero" xlink:href="#callback-copy-a"/>
  </g>
</svg>
