<svg xmlns="http://www.w3.org/2000/svg" xmlns:xlink="http://www.w3.org/1999/xlink" width="20" height="20" viewBox="0 0 20 20">
  <defs>
    <path id="-category-copy-a" d="M15,8.03625488 L9.81390464,8.03625488 L7.12612183,7 L1.99809548,7 C1.44921076,7 1,7.45123791 1,8.0085302 L1,15.9914698 C1,16.5485158 1.44781571,17 1.99406028,17 L14.0059397,17 C14.5534771,17 15,16.5528264 15,16.0018286 L15,8.03625488 Z M19,3.98223877 L13.6439769,3.98223877 L10.996918,3 L7.51220703,3 C6.66304979,3 6,3.63361384 6,4.39655848 L6,6 L7.31221719,6 L10,7.03625488 L16,7.03625488 L16,13 L17.5007684,13 C18.3404508,13 19,12.3690109 19,11.6110298 L19,4 L19,3.98223877 Z M5,6 L5,4.39655848 C5,3.07297578 6.11851223,2 7.51220703,2 L11.1764706,2 L13.8235294,2.98223877 L20,2.98223877 L20,11.6110298 C20,12.9304216 18.8841408,14 17.5007684,14 L16,14 L16,16.0018286 C16,17.1053882 15.1054862,18 14.0059397,18 L1.99406028,18 C0.892771196,18 0,17.0980496 0,15.9914698 L0,8.0085302 C0,6.8992496 0.896621359,6 1.99809548,6 L5,6 Z"/>
  </defs>
  <g fill-rule="evenodd">
    <use fill-rule="nonzero" xlink:href="#-category-copy-a"/>
  </g>
</svg>
