<svg xmlns="http://www.w3.org/2000/svg" width="15" height="18" viewBox="0 0 15 18"><path fill="#FFF" d="M9.745 3.47A6.033 6.033 0 0 0 7.5 3.04c-3.314 0-6 2.662-6 5.946 0 .41-.336.743-.75.743A.747.747 0 0 1 0 8.986c0-4.105 3.358-7.433 7.5-7.433 1.048 0 2.065.214 2.999.618L10.146.949a.744.744 0 0 1 .515-.92.75.75 0 0 1 .927.509l.988 3.423-3.11 1.214a.75.75 0 0 1-.972-.42.743.743 0 0 1 .425-.963l.826-.323zM5.32 14.527a6.033 6.033 0 0 0 2.181.405c3.314 0 6-2.663 6-5.947 0-.41.336-.743.75-.743s.75.333.75.743c0 4.105-3.358 7.434-7.5 7.434a7.535 7.535 0 0 1-3.032-.633l.345 1.276a.744.744 0 0 1-.531.911.75.75 0 0 1-.918-.524l-.929-3.44 3.131-1.16a.75.75 0 0 1 .965.436.743.743 0 0 1-.442.957l-.77.285z"/></svg>
