<svg xmlns="http://www.w3.org/2000/svg" xmlns:xlink="http://www.w3.org/1999/xlink" width="32" height="32" viewBox="0 0 32 32">
  <defs>
    <path id="custom-view-copy-a" d="M10,19 L14.0388184,19 L14.0388184,20 L12.5517578,20 L9,20 L9,8 L20,8 L20,14.0354004 L19,14.0354004 L19,9 L10,9 L10,19 Z M11,11 L18,11 L18,12 L11,12 L11,11 Z M11,13 L16,13 L16,14 L11,14 L11,13 Z M24.2421182,21.0625431 L24.7034721,21.3178807 L23.2394512,23.6601765 L22.827908,23.4415951 C22.2048332,23.1106637 21.4283737,23.3372237 21.0107555,24.0678753 C20.9627289,24.1261917 20.920964,24.2915407 20.9353832,24.4564469 L20.9829106,25 L18.0557461,25 L18.0622105,24.4936176 C18.0705438,23.8408379 17.5201778,23.2965401 16.8457081,23.3116807 C16.5760529,23.2960907 16.3600212,23.3433407 16.1681743,23.4433692 L15.7576945,23.6573923 L14.302374,21.3236194 L14.753615,21.0658542 C15.3633406,20.7175568 15.5682115,19.9837609 15.2260585,19.413091 C15.1145086,19.2270651 14.9498324,19.0653444 14.7253994,18.9178509 L14.3170655,18.6495009 L15.7669788,16.3285313 L16.1839056,16.5652826 C16.7832654,16.9056284 17.5704159,16.7035322 17.918946,16.1222321 C18.0316053,15.934375 18.0795442,15.7401566 18.0637149,15.5392784 L18.0212196,15 L20.9475259,15 L20.9371809,15.5101374 C20.9238556,16.1672361 21.4597685,16.6875033 22.1248861,16.6875033 C22.5142122,16.6875033 22.6652036,16.6591963 22.7961902,16.5767897 L23.2249056,16.3070753 L24.6974914,18.7162638 L24.2429772,18.9697038 C23.6768186,19.2853974 23.4710433,19.9795555 23.7116189,20.5580052 C23.764534,20.6852363 24.0360884,20.9485153 24.2421182,21.0625431 Z M22.78829,20.9420153 C22.4249513,20.0683893 22.6343284,19.0426398 23.3329895,18.4013446 L22.8570531,17.6227002 C22.6572915,17.6703391 22.426261,17.6875033 22.1248861,17.6875033 C21.0845104,17.6875033 20.2029395,16.9764001 19.9873167,16 L19.027437,16 C18.9820504,16.2208495 18.8977041,16.4345207 18.7765756,16.6365 C18.2317602,17.5451769 17.1177733,17.9341846 16.1344816,17.6276904 L15.662334,18.3834874 C15.8285379,18.5375083 15.9693568,18.7081587 16.0837007,18.8988442 C16.6278713,19.806455 16.4268,20.9325023 15.670296,21.6273766 L16.1429668,22.3853583 C16.3730038,22.3227143 16.6149304,22.2973487 16.862079,22.3126702 C17.8911432,22.2869597 18.7842601,23.0213846 19.008314,24 L19.9717446,24 C20.0148911,23.7948581 20.0910626,23.6172896 20.1883589,23.5060417 C20.739936,22.5193472 21.8532284,22.0881897 22.8598599,22.3807704 L23.3285509,21.6309088 C23.0910625,21.4227964 22.8836729,21.1713576 22.78829,20.9420153 Z M19.5000145,22 C18.3954352,22 17.5,21.1045827 17.5,20 C17.5,18.8954232 18.3954292,18 19.5000145,18 C20.604587,18 21.5,18.8954249 21.5,20.0000087 C21.4999807,21.1045929 20.6045855,22 19.5000145,22 Z M19.5000145,21 C20.0523007,21 20.4999904,20.5523044 20.5,20 C20.5,19.4477067 20.0522993,19 19.5000145,19 C18.9477124,19 18.5,19.4477095 18.5,20 C18.5,20.5522935 18.9477154,21 19.5000145,21 Z"/>
  </defs>
  <g fill="none" fill-rule="evenodd">
    <use fill="#20455E" fill-rule="nonzero" xlink:href="#custom-view-copy-a"/>
  </g>
</svg>
