<svg xmlns="http://www.w3.org/2000/svg" xmlns:xlink="http://www.w3.org/1999/xlink" width="10" height="10" viewBox="0 0 10 10">
  <defs>
    <path id="arrow-bottom-a" d="M4,6.76614217 L4,1.00023358 C4,0.447819828 4.44781983,-1.0658141e-13 5.00023358,-1.05693232e-13 C5.55264734,-1.05693232e-13 6.00046716,0.447819828 6.00046716,1.00023358 L6.00046716,6.73716995 L8.40310677,4.94944581 C8.84619327,4.6197599 9.47264909,4.71168924 9.802335,5.15477574 C10.1320209,5.59786224 10.0400916,6.22431805 9.59700507,6.55400396 L4.9633747,10.001734 L0.396982606,6.54941065 C-0.0435670761,6.21634245 -0.130698036,5.58920125 0.202370159,5.14865157 C0.535438354,4.70810189 1.16257956,4.62097093 1.60312924,4.95403912 L4,6.76614217 Z"/>
  </defs>
  <g fill="none" fill-rule="evenodd" transform="matrix(1 0 0 -1 0 10)">
    <use fill="currentColor" fill-rule="nonzero" transform="matrix(1 0 0 -1 0 10.002)" xlink:href="#arrow-bottom-a"/>
  </g>
</svg>
