<?xml version="1.0" encoding="UTF-8"?>
<svg width="22px" height="31px" viewBox="0 0 22 31" version="1.1" xmlns="http://www.w3.org/2000/svg" xmlns:xlink="http://www.w3.org/1999/xlink">
    <!-- Generator: Sketch 48.1 (47250) - http://www.bohemiancoding.com/sketch -->
    <title>Drop +border</title>
    <desc>Created with Sketch.</desc>
    <defs></defs>
    <g id="Settings-\-Help-Center-\-Design-states" stroke="none" stroke-width="1" fill-rule="evenodd" transform="translate(-568.000000, -538.000000)">
        <path d="M568.543262,559.403549 C568.285472,557.216015 569.201205,554.215318 571.034442,550.565349 C571.759205,549.122351 572.614106,547.607502 573.572517,546.045685 C574.672396,544.253332 575.850105,542.49221 577.02782,540.836453 C577.440076,540.25686 577.823,539.731683 578.166847,539.270242 C578.373665,538.992693 578.521871,538.79759 578.601714,538.694268 L578.997252,538.182417 L579.392913,538.694173 C579.472798,538.797498 579.621082,538.992607 579.82801,539.270165 C580.172039,539.731621 580.555166,540.256814 580.96764,540.836424 C582.145979,542.49223 583.324312,544.253401 584.424775,546.045797 C585.383626,547.607541 586.238928,549.122319 586.964043,550.565254 C588.798267,554.215246 589.714552,557.215965 589.456757,559.403549 C588.756019,564.573314 584.307485,568.477545 578.995233,568.499996 C573.691684,568.477541 569.243888,564.572491 568.543262,559.403549 Z M578.995236,567.500004 C583.804417,567.479664 587.832064,563.944822 588.464721,559.27789 C588.692087,557.347956 587.822837,554.501274 586.070521,551.014274 C585.359109,549.598607 584.517468,548.108024 583.572576,546.569015 C582.484958,544.79754 581.31892,543.054746 580.152889,541.416235 C579.744833,540.842834 579.366039,540.32358 579.026293,539.867869 C578.988003,539.841867 578.978422,539.854717 578.968706,539.867755 C578.629141,540.32345 578.250548,540.842688 577.842708,541.416071 C576.677295,543.054533 575.511875,544.797278 574.424834,546.568711 C573.480375,548.107792 572.639127,549.598447 571.92806,551.014179 C570.177973,554.498594 569.309226,557.343646 569.534788,559.273557 C570.170337,563.946258 574.196313,567.479668 578.995236,567.500004 Z M569.535297,559.27789 L569.5342,559.269232 C569.534396,559.270673 569.534591,559.272114 569.534787,559.273556 C569.534957,559.275002 569.535127,559.276446 569.535297,559.27789 Z" id="Drop-+border" fill-rule="nonzero"></path>
    </g>
</svg>