<svg xmlns="http://www.w3.org/2000/svg" width="132" height="93" viewBox="0 0 132 93">
  <g fill="none" fill-rule="evenodd" transform="translate(1)">
    <path fill="#E0E3E5" d="M46 93L18.5 93 18.5 36.415C18.5 35.311 19.396 34.415 20.5 34.415L44 34.415C45.104 34.415 46 35.311 46 36.415L46 93zM82 91L54.5 91 54.5 15C54.5 13.896 55.396 13 56.5 13L80 13C81.104 13 82 13.896 82 15L82 91zM116 91L88.5 91 88.5 72.366C88.5 71.262 89.396 70.366 90.5 70.366L114 70.366C115.104 70.366 116 71.262 116 72.366L116 91z"/>
    <path fill="#C2C7CB" d="M40 12C40 12.55 40.45 13 41 13L45 13C45.55 13 46 12.55 46 12 46 11.45 45.55 11 45 11L41 11C40.45 11 40 11.45 40 12M51 1L51 5C51 5.55 51.45 6 52 6 52.55 6 53 5.55 53 5L53 1C53 .45 52.55 0 52 0 51.45 0 51 .45 51 1M43.5146 3.5146C43.1256 3.9036 43.1256 4.5396 43.5146 4.9286L46.3426 7.7576C46.7326 8.1466 47.3686 8.1466 47.7576 7.7576 48.1466 7.3686 48.1466 6.7326 47.7576 6.3426L44.9286 3.5146C44.5396 3.1256 43.9036 3.1256 43.5146 3.5146"/>
    <polyline stroke="#66747C" stroke-linecap="round" stroke-width="2" points="0 5 0 92 130 92"/>
    <path fill="#3CC7C5" d="M15.5,92 L15.5,30 C15.5,29.448 15.948,29 16.5,29 L40,29 C40.552,29 41,29.448 41,30 L41,92 L15.5,92 Z"/>
    <path fill="#66747C" d="M40,28 L16.5,28 C15.396,28 14.5,28.896 14.5,30 L14.5,93 L42,93 L42,30 C42,28.896 41.104,28 40,28 Z M16.5,91 L40,91 L40,30 L16.5,30 L16.5,91 Z"/>
    <path fill="#F79A94" d="M51.5,92 L51.5,13 C51.5,12.448 51.948,12 52.5,12 L76,12 C76.552,12 77,12.448 77,13 L77,92 L51.5,92 Z"/>
    <path fill="#66747C" d="M76,11 L52.5,11 C51.396,11 50.5,11.896 50.5,13 L50.5,93 L78,93 L78,13 C78,11.896 77.104,11 76,11 Z M52.5,91 L76,91 L76,13 L52.5,13 L52.5,91 Z"/>
    <path fill="#FABD71" d="M85.5,92 L85.5,69 C85.5,68.448 85.948,68 86.5,68 L110,68 C110.552,68 111,68.448 111,69 L111,92 L85.5,92 Z"/>
    <path fill="#66747C" d="M110,67 L86.5,67 C85.396,67 84.5,67.896 84.5,69 L84.5,93 L112,93 L112,69 C112,67.896 111.104,67 110,67 Z M86.5,91 L110,91 L110,69 L86.5,69 L86.5,91 Z"/>
  </g>
</svg>
