<svg xmlns="http://www.w3.org/2000/svg" xmlns:xlink="http://www.w3.org/1999/xlink" width="34" height="34" viewBox="0 0 34 34">
  <defs>
    <path id="email-copy-a" d="M0,1 C0,0.4477153 0.44771525,0 1,0 L15,0 C15.5522847,0 16,0.4477153 16,1 L16,11 C16,11.5522847 15.5522847,12 15,12 L1,12 C0.44771525,12 0,11.5522847 0,11 L0,1 Z M14,3 L14,2 L2,2 L2,3 L8,5.5 L14,3 Z M14,5 L8,7.5 L2,5 L2,10 L14,10 L14,5 Z"/>
  </defs>
  <g fill="none" fill-rule="evenodd" transform="translate(9 11)">
    <use fill="#20455E" fill-rule="nonzero" xlink:href="#email-copy-a"/>
  </g>
</svg>
