<svg xmlns="http://www.w3.org/2000/svg" xmlns:xlink="http://www.w3.org/1999/xlink" width="34" height="34" viewBox="0 0 34 34">
  <defs>
    <path id="open-a" d="M14.2675644,24 L10,24 C9.44771525,24 9,23.5522847 9,23 C9,22.4477153 9.44771525,22 10,22 L14.2675644,22 C14.6133738,21.4021986 15.2597176,21 16,21 C16.7402824,21 17.3866262,21.4021986 17.7324356,22 L24,22 C24.5522847,22 25,22.4477153 25,23 C25,23.5522847 24.5522847,24 24,24 L17.7324356,24 C17.3866262,24.5978014 16.7402824,25 16,25 C15.2597176,25 14.6133738,24.5978014 14.2675644,24 Z M19.2675644,18 L10,18 C9.44771525,18 9,17.5522847 9,17 C9,16.4477153 9.44771525,16 10,16 L19.2675644,16 C19.6133738,15.4021986 20.2597176,15 21,15 C21.7402824,15 22.3866262,15.4021986 22.7324356,16 L24,16 C24.5522847,16 25,16.4477153 25,17 C25,17.5522847 24.5522847,18 24,18 L22.7324356,18 C22.3866262,18.5978014 21.7402824,19 21,19 C20.2597176,19 19.6133738,18.5978014 19.2675644,18 Z M11.2675644,10 C11.6133738,9.40219863 12.2597176,9 13,9 C13.7402824,9 14.3866262,9.40219863 14.7324356,10 L24,10 C24.5522847,10 25,10.4477153 25,11 C25,11.5522847 24.5522847,12 24,12 L14.7324356,12 C14.3866262,12.5978014 13.7402824,13 13,13 C12.2597176,13 11.6133738,12.5978014 11.2675644,12 L10,12 C9.44771525,12 9,11.5522847 9,11 C9,10.4477153 9.44771525,10 10,10 L11.2675644,10 Z"/>
  </defs>
  <g fill="none" fill-rule="evenodd">
    <mask id="open-b" fill="#fff">
      <use xlink:href="#open-a"/>
    </mask>
    <use fill="#3899EC" xlink:href="#open-a"/>
    <g fill="#3899EC" mask="url(#open-b)">
      <rect width="16" height="16" transform="translate(9 9)"/>
    </g>
  </g>
</svg>
