<svg xmlns="http://www.w3.org/2000/svg" xmlns:xlink="http://www.w3.org/1999/xlink" width="34" height="34" viewBox="0 0 34 34">
  <defs>
    <path id="closed-a" d="M17.2675644,24 L10,24 C9.44771525,24 9,23.5522847 9,23 C9,22.4477153 9.44771525,22 10,22 L17.2675644,22 C17.6133738,21.4021986 18.2597176,21 19,21 C19.7402824,21 20.3866262,21.4021986 20.7324356,22 L24,22 C24.5522847,22 25,22.4477153 25,23 C25,23.5522847 24.5522847,24 24,24 L20.7324356,24 C20.3866262,24.5978014 19.7402824,25 19,25 C18.2597176,25 17.6133738,24.5978014 17.2675644,24 Z M11.2675644,18 L10,18 C9.44771525,18 9,17.5522847 9,17 C9,16.4477153 9.44771525,16 10,16 L11.2675644,16 C11.6133738,15.4021986 12.2597176,15 13,15 C13.7402824,15 14.3866262,15.4021986 14.7324356,16 L24,16 C24.5522847,16 25,16.4477153 25,17 C25,17.5522847 24.5522847,18 24,18 L14.7324356,18 C14.3866262,18.5978014 13.7402824,19 13,19 C12.2597176,19 11.6133738,18.5978014 11.2675644,18 Z M20.2675644,10 C20.6133738,9.40219863 21.2597176,9 22,9 C22.7402824,9 23.3866262,9.40219863 23.7324356,10 L24,10 C24.5522847,10 25,10.4477153 25,11 C25,11.5522847 24.5522847,12 24,12 L23.7324356,12 C23.3866262,12.5978014 22.7402824,13 22,13 C21.2597176,13 20.6133738,12.5978014 20.2675644,12 L10,12 C9.44771525,12 9,11.5522847 9,11 C9,10.4477153 9.44771525,10 10,10 L20.2675644,10 Z"/>
  </defs>
  <g fill="none" fill-rule="evenodd">
    <mask id="closed-b" fill="#fff">
      <use xlink:href="#closed-a"/>
    </mask>
    <use fill="#3899EC" xlink:href="#closed-a"/>
    <g fill="#3899EC" mask="url(#closed-b)">
      <rect width="16" height="16" transform="translate(9 9)"/>
    </g>
  </g>
</svg>
