<svg xmlns="http://www.w3.org/2000/svg" xmlns:xlink="http://www.w3.org/1999/xlink" width="34" height="34" viewBox="0 0 34 34">
  <defs>
    <path id="web-copy-a" d="M9,18 C4.0294373,18 0,13.9705627 0,9 C0,4.0294373 4.0294373,0 9,0 C13.9705627,0 18,4.0294373 18,9 C18,13.9705627 13.9705627,18 9,18 Z M2.0708889,10 L5.0212012,10 C5.0071279,9.671444 5,9.3377707 5,9 C5,8.6622293 5.0071279,8.328556 5.0212012,8 L2.0708889,8 C2.024172,8.326603 2,8.6604787 2,9 C2,9.3395213 2.024172,9.673397 2.0708889,10 Z M2.6736312,12 C3.3770667,13.4807667 4.5850753,14.6753855 6.0754693,15.3616688 C5.676484,14.4212774 5.3804628,13.2752373 5.2010796,12 L2.6736312,12 Z M15.9291111,10 C15.975828,9.673397 16,9.3395213 16,9 C16,8.6604787 15.975828,8.326603 15.9291111,8 L12.9787988,8 C12.9928721,8.328556 13,8.6622293 13,9 C13,9.3377707 12.9928721,9.671444 12.9787988,10 L15.9291111,10 Z M15.3263688,12 L12.7989204,12 C12.6195372,13.2752373 12.323516,14.4212774 11.9245307,15.3616688 C13.4149247,14.6753855 14.6229333,13.4807667 15.3263688,12 Z M7.0255325,10 L10.9744675,10 C10.9911603,9.6737458 11,9.3399035 11,9 C11,8.6600965 10.9911603,8.3262542 10.9744675,8 L7.0255325,8 C7.0088397,8.3262542 7,8.6600965 7,9 C7,9.3399035 7.0088397,9.6737458 7.0255325,10 Z M7.2348773,12 C7.6176867,14.3755392 8.3942127,16 9,16 C9.6057873,16 10.3823133,14.3755392 10.7651227,12 L7.2348773,12 Z M2.6736312,6 L5.2010796,6 C5.3804628,4.7247627 5.676484,3.5787226 6.0754693,2.6383312 C4.5850753,3.3246145 3.3770667,4.5192333 2.6736312,6 Z M15.3263688,6 C14.6229333,4.5192333 13.4149247,3.3246145 11.9245307,2.6383312 C12.323516,3.5787226 12.6195372,4.7247627 12.7989204,6 L15.3263688,6 Z M7.2348773,6 L10.7651227,6 C10.3823133,3.6244608 9.6057873,2 9,2 C8.3942127,2 7.6176867,3.6244608 7.2348773,6 Z"/>
  </defs>
  <g fill="none" fill-rule="evenodd" transform="translate(8 8)">
    <use fill="#20455E" fill-rule="nonzero" xlink:href="#web-copy-a"/>
  </g>
</svg>
