<?xml version="1.0" encoding="UTF-8"?>
<svg width="40px" height="40px" viewBox="0 0 40 40" version="1.1" xmlns="http://www.w3.org/2000/svg" xmlns:xlink="http://www.w3.org/1999/xlink">
    <!-- Generator: Sketch 48.2 (47327) - http://www.bohemiancoding.com/sketch -->
    <title>Languages - small</title>
    <desc>Created with Sketch.</desc>
    <defs></defs>
    <g id="SVG" stroke="none" stroke-width="1" fill="none" fill-rule="evenodd">
        <g id="Languages---small" fill="#7A92A5">
            <path d="M25.0544,21.2 L22.7432,21.2 C22.78,20.812 22.8,20.4112 22.8,20 C22.8,19.5888 22.78,19.188 22.7432,18.8 L25.0544,18.8 C25.1464,19.1856 25.2,19.5864 25.2,20 C25.2,20.4136 25.1464,20.8144 25.0544,21.2 L25.0544,21.2 Z M21.5792,24.9528 C22.064,24.2408 22.4376,23.2088 22.6368,22 L24.7984,22 C24.2136,23.3984 23.0352,24.488 21.5792,24.9528 L21.5792,24.9528 Z M15.2008,22 L17.3624,22 C17.5624,23.2088 17.9352,24.2408 18.42,24.9528 C16.9648,24.488 15.7856,23.3984 15.2008,22 L15.2008,22 Z M14.9448,18.8 L17.256,18.8 C17.2192,19.188 17.2,19.5888 17.2,20 C17.2,20.4112 17.2192,20.812 17.256,21.2 L14.9448,21.2 C14.8536,20.8144 14.8,20.4136 14.8,20 C14.8,19.5864 14.8536,19.1856 14.9448,18.8 L14.9448,18.8 Z M18.42,15.0472 C17.9352,15.7592 17.5624,16.7912 17.3624,18 L15.2008,18 C15.7856,16.6016 16.9648,15.512 18.42,15.0472 L18.42,15.0472 Z M18.172,18 C18.5288,16.0024 19.3728,14.8 20,14.8 C20.6272,14.8 21.4704,16.0024 21.8272,18 L18.172,18 Z M20,25.2 C19.3728,25.2 18.5288,23.9976 18.172,22 L21.8272,22 C21.4704,23.9976 20.6272,25.2 20,25.2 L20,25.2 Z M22,20 C22,20.4216 21.9776,20.8208 21.9392,21.2 L18.06,21.2 C18.0216,20.8208 18,20.4216 18,20 C18,19.5784 18.0216,19.1792 18.06,18.8 L21.9392,18.8 C21.9776,19.1792 22,19.5784 22,20 L22,20 Z M24.7984,18 L22.6368,18 C22.4376,16.7912 22.064,15.7592 21.5792,15.0472 C23.0352,15.512 24.2136,16.6016 24.7984,18 L24.7984,18 Z M20,14 C16.6856,14 14,16.6864 14,20 C14,23.3136 16.6856,26 20,26 C23.3136,26 26,23.3136 26,20 C26,16.6864 23.3136,14 20,14 L20,14 Z" id="Fill-1-Copy-2"></path>
        </g>
    </g>
</svg>