<svg xmlns="http://www.w3.org/2000/svg" width="22" height="22" viewBox="0 0 22 22">
  <path fill="#20455E" d="M12.089103,15.6574449 C11.2402426,15.3032847 9.9392406,14.4794945 9.24778478,13.7852279 C8.55351815,13.0909614 7.77706643,12.0397571 7.42290615,11.1908968 L8.99976264,9.61404026 L6.38572237,7 L5,8.38572237 C5.01405401,10.7271155 6.15590923,13.3073926 7.94076465,15.0922481 C9.72562007,16.8771035 12.5528843,18.0691079 14.8942774,18.080351 L16.2799997,16.6946286 L13.6659596,14.0805884 L12.089103,15.6574449 Z M13.6659596,12.6663748 L17.6942133,16.6946287 L15.3064999,19.082342 L14.8894755,19.0803395 C12.2620092,19.0677227 9.18844712,17.7541441 7.23365785,15.7993549 C5.26049529,13.8261922 4.01564096,10.9945015 4.00001801,8.39172468 L3.99751065,7.97399816 L6.38572237,5.58578644 L10.4139762,9.61404025 L8.6427411,11.3852754 C8.98124071,11.9577911 9.47391403,12.5971444 9.9563244,13.0795569 C10.3895467,13.5145402 11.1850372,14.0674984 11.8846549,14.4476794 L13.6659596,12.6663748 Z" transform="rotate(135 10.846 12.334)"/>
</svg>
