<svg xmlns="http://www.w3.org/2000/svg" xmlns:xlink="http://www.w3.org/1999/xlink" width="150" height="150" viewBox="0 0 150 150">
  <defs>
    <path id="hangup-call-a" d="M39.8862888,47.8360497 C35.1453127,45.8543496 27.8790781,41.2448397 24.0172237,37.3600773 C20.1396706,33.4753154 15.803105,27.593312 13.8250821,22.8435221 L20.5165775,16.1395852 C21.6855246,14.9684647 21.6855246,13.0720073 20.5165775,11.9008868 L10.1555899,1.52063563 C8.98510563,0.347975146 7.08561151,0.346210973 5.91295103,1.51669523 C5.91163635,1.51800748 5.91032288,1.51932094 5.90901064,1.52063563 L0.292893219,7.14719479 C0.371386388,20.2484379 6.74876939,34.6863545 16.717377,44.6734967 C26.6859846,54.6606379 42.4765566,61.3304874 55.5534862,61.3933983 L61.1774771,55.758951 C62.3464243,54.5878305 62.3464243,52.6913731 61.1774771,51.5202525 L50.81649,41.1400014 C49.6460057,39.9673409 47.7465116,39.9655767 46.5738511,41.136061 C46.5725364,41.1373732 46.571223,41.1386867 46.5699107,41.1400014 L39.8862888,47.8360497 Z"/>
    <path id="hangup-call-b" d="M39.5933956,53.4426514 C34.8524195,51.4609513 27.5861849,46.8514414 23.7243305,42.966679 C19.8467774,39.0819171 15.5102118,33.1999137 13.5321889,28.4501238 L20.2236843,21.746187 C21.3926314,20.5750664 21.3926314,18.6786091 20.2236843,17.5074886 L9.86269667,7.12723734 C8.69221241,5.95457686 6.79271829,5.95281269 5.62005781,7.12329695 C5.61874313,7.12460919 5.61742966,7.12592266 5.61611742,7.12723734 L0,12.7537965 C0.0784931695,25.8550396 6.45587617,40.2929562 16.4244838,50.2800984 C26.3930914,60.2672396 42.1836634,66.9370892 55.260593,67 L60.8845839,61.3655527 C62.053531,60.1944322 62.053531,58.2979748 60.8845839,57.1268543 L50.5235968,46.7466031 C49.3531125,45.5739427 47.4536184,45.5721784 46.2809579,46.7426627 C46.2796432,46.7439749 46.2783297,46.7452884 46.2770175,46.7466031 L39.5933956,53.4426514 Z"/>
  </defs>
  <g fill="none" fill-rule="evenodd" transform="translate(31 40)">
    <g transform="rotate(135 31.594 49.726)">
      <use fill="#CBD2D9" fill-rule="nonzero" xlink:href="#hangup-call-a"/>
      <use fill="#FFF" fill-rule="nonzero" stroke="#66747C" stroke-width="2" xlink:href="#hangup-call-b"/>
    </g>
    <path fill="#F79A94" fill-rule="nonzero" stroke="#66747C" stroke-width="2" d="M15.9553722,3 L15.8767632,-1.50350924 L30.2348897,5.364987 L16.1252168,12.7303905 L16.0426475,8 L2.08419245,8 C0.703480574,8 -0.415807552,6.88071187 -0.415807552,5.5 C-0.415807552,4.11928813 0.703480574,3 2.08419245,3 L15.9553722,3 Z" transform="rotate(90 24.5 24.5)"/>
  </g>
</svg>
