<svg xmlns="http://www.w3.org/2000/svg" width="17" height="17" viewBox="0 0 17 17">
    <path fill="currentColor" fill-rule="nonzero" d="M10.45 10a2.51 2.51 0 0 0-.743-.625L8.5 8.71l-1.207.666A2.51 2.51 0 0 0 6.55 10h3.9zm.486 1H6.064a2.507 2.507 0 0 0-.064.566V13h5v-1.434c0-.194-.022-.383-.064-.566zM5 13v-1.434c0-.936.367-1.785.965-2.413.115-.115.235-.225.361-.33.152-.12.313-.229.484-.323a3.506 3.506 0 0 1-.484-.322 4.614 4.614 0 0 1-.361-.33A3.488 3.488 0 0 1 5 5.433V4H4V3h9v1h-1v1.434c0 .936-.367 1.785-.965 2.413a7.839 7.839 0 0 1-.361.33c-.152.12-.313.229-.484.323.17.094.332.202.484.322.18.141.3.251.361.33.598.629.965 1.478.965 2.414V13h1v1H4v-1h1zm4.707-5.375A2.499 2.499 0 0 0 11 5.435V4H6v1.434c0 .921.501 1.753 1.293 2.19l1.207.667 1.207-.666z"/>
</svg>
