<svg xmlns="http://www.w3.org/2000/svg" width="31" height="31" viewBox="0 0 31 31">
  <path fill="#3899EC" d="M11.4913486,9.82495252 L7.80905107,14.3249525 L11.4913486,18.8249525 L22.840854,18.8249525 L22.840854,9.82495252 L11.4913486,9.82495252 Z M11.4913486,7.82495252 L22.840854,7.82495252 C23.9454235,7.82495252 24.840854,8.72038302 24.840854,9.82495252 L24.840854,18.8249525 C24.840854,19.929522 23.9454235,20.8249525 22.840854,20.8249525 L11.4913486,20.8249525 C10.891527,20.8249525 10.3233741,20.5557389 9.94351481,20.0915269 L6.26121728,15.5915269 C5.658329,14.8547593 5.658329,13.7951457 6.26121728,13.0583782 L9.94351481,8.55837818 C10.3233741,8.09416614 10.891527,7.82495252 11.4913486,7.82495252 Z M13.5010206,15.2016468 C14.3294478,15.2016468 15.0010206,14.5300739 15.0010206,13.7016468 C15.0010206,12.8732196 14.3294478,12.2016468 13.5010206,12.2016468 C12.6725935,12.2016468 12.0010206,12.8732196 12.0010206,13.7016468 C12.0010206,14.5300739 12.6725935,15.2016468 13.5010206,15.2016468 Z" transform="rotate(45 15.325 14.325)"/>
</svg>
