<svg xmlns="http://www.w3.org/2000/svg" width="35" height="34" viewBox="0 0 35 34">
  <g fill="currentColor" transform="translate(7 9)">
    <path d="M19.3846154 1L1.61538462 1C1.37452603 1 1.15585206 1.03763029 1 1.09504563L1 2.90495437C1.15585206 2.96236971 1.37452603 3 1.61538462 3L19.3846154 3C19.625474 3 19.8441479 2.96236971 20 2.90495437L20 1.09504563C19.8441479 1.03763029 19.625474 1 19.3846154 1zM.918949429 1.12944701C.917566914 1.13012759.919920941 1.12773538.923457702 1.12307925L.918949429 1.12944701zM21 .8L21 3.2C21 3.6418278 20.2767677 4 19.3846154 4L1.61538462 4C.723232327 4 0 3.6418278 0 3.2L0 .8C0 .3581722.723232327 0 1.61538462 0L19.3846154 0C20.2767677 0 21 .3581722 21 .8zM19.3846154 7L1.61538462 7C1.37452603 7 1.15585206 7.03763029 1 7.09504563L1 8.90495437C1.15585206 8.96236971 1.37452603 9 1.61538462 9L19.3846154 9C19.625474 9 19.8441479 8.96236971 20 8.90495437L20 7.09504563C19.8441479 7.03763029 19.625474 7 19.3846154 7zM.918949429 7.12944701C.917566914 7.13012759.919920941 7.12773538.923457702 7.12307925L.918949429 7.12944701zM21 6.8L21 9.2C21 9.6418278 20.2767677 10 19.3846154 10L1.61538462 10C.723232327 10 0 9.6418278 0 9.2L0 6.8C0 6.3581722.723232327 6 1.61538462 6L19.3846154 6C20.2767677 6 21 6.3581722 21 6.8zM19.3846154 13L1.61538462 13C1.37452603 13 1.15585206 13.0376303 1 13.0950456L1 14.9049544C1.15585206 14.9623697 1.37452603 15 1.61538462 15L19.3846154 15C19.625474 15 19.8441479 14.9623697 20 14.9049544L20 13.0950456C19.8441479 13.0376303 19.625474 13 19.3846154 13zM.918949429 13.129447C.917566914 13.1301276.919920941 13.1277354.923457702 13.1230792L.918949429 13.129447zM21 12.8L21 15.2C21 15.6418278 20.2767677 16 19.3846154 16L1.61538462 16C.723232327 16 0 15.6418278 0 15.2L0 12.8C0 12.3581722.723232327 12 1.61538462 12L19.3846154 12C20.2767677 12 21 12.3581722 21 12.8z"/>
  </g>
</svg>
