<?xml version="1.0" encoding="UTF-8" standalone="no"?>
<svg width="25px" height="25px" viewBox="0 0 25 25" version="1.1" xmlns="http://www.w3.org/2000/svg" xmlns:xlink="http://www.w3.org/1999/xlink">
    <defs></defs>
    <g id="SVGs" stroke="none" stroke-width="1" fill-rule="evenodd">
        <g id="private">
            <path d="M17.0025635,11.0098261 L17.0025635,9.5 C17.0025635,7.1326494 15.0251079,5.04297223 12.6307571,5.0008629 C12.5653638,4.99971237 12.4346068,4.99971237 12.3692135,5.0008629 C9.97483334,5.04297223 8.00610352,7.37690445 8,9.5 L8.00610352,11.0150757 L7.72721197,11.0150757 C7.29745142,11.0150757 7.00512695,11.4488823 7.00512695,11.9846545 L7,18.0269696 C7,18.5621378 7.35054771,19 7.78033766,19 L17.2196623,19 C17.6494523,19 18,18.5621378 18,18.0269696 L18,11.9207764 C17.9999706,11.3850042 17.711245,11.0098261 17.2814256,11.0098261 L17.0025635,11.0098261 Z M13.3843376,15.0020553 L13.3843376,16.9730956 C13.3843376,17.1988262 13.1947149,17.3898064 12.9680144,17.3898064 L12.0319856,17.3898064 C11.8052851,17.3898064 11.6156624,17.1988262 11.6156624,16.9730956 L11.6156624,15.0020553 C11.395813,14.7863748 11.2678198,14.4882136 11.2678198,14.1583493 C11.2678198,13.5332538 11.7527118,12.9961182 12.3692429,12.97133 C12.4345774,12.968693 12.565452,12.968693 12.6307865,12.97133 C13.2473176,12.9961182 13.7322096,13.5332538 13.7322096,14.1583493 C13.7321802,14.4882136 13.6041576,14.7863748 13.3843376,15.0020553 L13.3843376,15.0020553 Z M15.0268553,11 L12.5561761,11 L12.2932974,11 L10,11 L10,9.75815599 C10,8.32652887 11.0456109,7 12.487085,7 C13.928559,7 15.0268555,8.25927916 15.0268555,9.69090627 L15.0268553,11 Z" id="Shape"></path>
        </g>
    </g>
</svg>
