<?xml version="1.0" encoding="UTF-8"?>
<svg width="31px" height="31px" viewBox="0 0 31 31" version="1.1" xmlns="http://www.w3.org/2000/svg" xmlns:xlink="http://www.w3.org/1999/xlink">
    <!-- Generator: Sketch 49.3 (51167) - http://www.bohemiancoding.com/sketch -->
    <title>Delete</title>
    <desc>Created with Sketch.</desc>
    <defs></defs>
    <g id="Delete" stroke="none" stroke-width="1" fill="none" fill-rule="evenodd">
        <path d="M15.0009046,13.2574451 L18.96487,9.29347975 C19.3553942,8.90295545 19.9885592,8.90295545 20.3790835,9.29347975 L20.7065203,9.62091648 C21.0970445,10.0114408 21.0970445,10.6446058 20.7065203,11.03513 L16.7425549,14.9990954 L20.7065203,18.9630608 C21.0970445,19.3535851 21.0970445,19.9867501 20.7065203,20.3772744 L20.3790835,20.7047111 C19.9885592,21.0952354 19.3553942,21.0952354 18.96487,20.7047111 L15.0009046,16.7407457 L11.03513,20.7065203 C10.6446058,21.0970445 10.0114408,21.0970445 9.62091648,20.7065203 L9.29347975,20.3790835 C8.90295545,19.9885592 8.90295545,19.3553942 9.29347975,18.96487 L13.2592543,14.9990954 L9.29528887,11.03513 C8.90476458,10.6446058 8.90476458,10.0114408 9.29528887,9.62091648 L9.62272561,9.29347975 C10.0132499,8.90295545 10.6464149,8.90295545 11.0369392,9.29347975 L15.0009046,13.2574451 Z" id="Close" fill="#3899EC" fill-rule="nonzero"></path>
    </g>
</svg>
