<svg xmlns="http://www.w3.org/2000/svg" xmlns:xlink="http://www.w3.org/1999/xlink" width="32" height="32" viewBox="0 0 32 32">
  <defs>
    <path id="gear---manage-copy-a" d="M20.9166009,16.5833481 C20.472269,15.5149788 20.7680041,14.0675518 21.9992368,13.3810085 L20.6457511,11.1666709 C20.2968439,11.3861762 19.9326545,11.4375048 19.2915022,11.4375048 C17.9706551,11.4375048 16.8255279,10.3968312 16.8538542,9 L14.1453563,9 C14.1807094,9.44864025 14.0709659,9.87781848 13.8356358,10.2702266 C13.1286981,11.4493011 11.557129,11.8502746 10.3534594,11.1667723 L9,13.3333418 C9.38120736,13.5838647 9.7112274,13.8894286 9.94592587,14.2808232 C10.6517319,15.4580223 10.2289957,16.9659746 9.00234225,17.6666836 L10.3534594,19.8333545 C10.7034455,19.6508726 11.1411827,19.5297671 11.7077083,19.5625206 C13.0186651,19.5297671 14.1627872,20.6345665 14.1453563,22 L16.8538542,22 C16.8172116,21.5809329 16.9271919,21.1565188 17.1247039,20.9166899 C17.8657752,19.5910167 19.4335284,19.1895111 20.6457511,19.8333545 L22,17.6666836 C21.6110816,17.4514356 21.0753021,16.9649356 20.9166009,16.5833481 Z M15.5000241,18 C14.1193051,18 13,16.8807432 13,15.5 C13,14.119281 14.119281,13 15.5000241,13 C16.8807432,13 18,14.119281 18,15.5 C17.9999759,16.8807432 16.8807432,18 15.5000241,18 Z"/>
  </defs>
  <g fill="none" fill-rule="evenodd">
    <use fill="#3899EC" fill-rule="nonzero" xlink:href="#gear---manage-copy-a"/>
  </g>
</svg>
