<svg xmlns="http://www.w3.org/2000/svg" width="26" height="26" viewBox="0 0 26 26">
  <g fill-rule="evenodd" transform="translate(1 1)">
    <path fill-rule="nonzero" d="M12,22 C17.5228475,22 22,17.5228475 22,12 C22,6.4771525 17.5228475,2 12,2 C6.4771525,2 2,6.4771525 2,12 C2,17.5228475 6.4771525,22 12,22 Z M12,24 C5.372583,24 0,18.627417 0,12 C0,5.372583 5.372583,0 12,0 C18.627417,0 24,5.372583 24,12 C24,18.627417 18.627417,24 12,24 Z"/>
    <path d="M12,20 C7.581722,20 4,16.418278 4,12 C4,7.581722 7.581722,4 12,4 C16.418278,4 20,7.581722 20,12 C20,16.418278 16.418278,20 12,20 Z M14.274551,13.4398587 C14.274551,12.8537946 14.109297,12.3972166 13.7787841,12.070111 C13.4482711,11.7430054 12.93888,11.4704215 12.2505954,11.2523512 C11.8826016,11.1365013 11.6066104,11.035986 11.4226135,10.9508022 C11.2386166,10.8656185 11.1108429,10.7753251 11.0392886,10.6799193 C10.9677343,10.5845135 10.9319576,10.4618507 10.9319576,10.3119273 C10.9319576,10.1006717 11.0137328,9.93712133 11.1772856,9.82127144 C11.3408384,9.70542155 11.5657201,9.64749748 11.8519374,9.64749748 C12.3902987,9.64749748 12.884357,9.8383062 13.3341271,10.2199294 L14.080333,9.34083754 C13.6101187,8.89788208 13.0445072,8.62189089 12.3834813,8.5128557 L12.3834813,7 L11.2181736,7 L11.2181736,8.5026337 C10.6389241,8.5912248 10.1721242,8.80758826 9.81775984,9.15173058 C9.46339547,9.49587289 9.28621594,9.92348887 9.28621594,10.4345913 C9.28621594,10.9456938 9.44465533,11.3647915 9.76153885,11.6918971 C10.0784224,12.0190026 10.6116646,12.3018084 11.3612815,12.5403229 C11.6952018,12.6425434 11.9507492,12.7396514 12.1279314,12.8316498 C12.3051136,12.9236483 12.4277763,13.0258672 12.4959233,13.1383098 C12.5640703,13.2507523 12.5981433,13.3921552 12.5981433,13.5625227 C12.5981433,13.8214813 12.5027389,14.0259192 12.3119273,14.1758426 C12.1211158,14.325766 11.8587538,14.4007265 11.5248335,14.4007265 C10.8842518,14.4007265 10.3186402,14.1724375 9.82798184,13.7158527 L9,14.6153885 C9.57924945,15.1810085 10.3186332,15.5012946 11.2181736,15.5762563 L11.2181736,17.13 L12.3834813,17.13 L12.3834813,15.5149243 C12.9763602,15.3922597 13.4397528,15.1486379 13.7736731,14.7840515 C14.1075933,14.419465 14.274551,13.9714053 14.274551,13.4398587 Z"/>
  </g>
</svg>
