<?xml version="1.0" encoding="UTF-8"?>
<svg width="26px" height="26px" viewBox="0 0 26 26" version="1.1" xmlns="http://www.w3.org/2000/svg" xmlns:xlink="http://www.w3.org/1999/xlink">
    <!-- Generator: Sketch 48.1 (47250) - http://www.bohemiancoding.com/sketch -->
    <title>CC icon</title>
    <desc>Created with Sketch.</desc>
    <defs></defs>
    <g id="Artboard" stroke="none" stroke-width="1" fill-rule="evenodd" transform="translate(-70.000000, -66.000000)">
        <g id="CC-main-Copy-3" transform="translate(73.000000, 66.000000)" fill-rule="nonzero">
            <path d="M17.5,11 L17.5,9 C17.5,5.03752381 14.3549486,2 10,2 C5.64505142,2 2.5,5.03752381 2.5,9 L2.5,11 L6,11 L6,18 L2,18 C0.896,18 0,17.216 0,16.25 L0,11 L0.5,11 L0.5,9 C0.5,3.91708659 4.55575051,0 10,0 C15.4442495,0 19.5,3.91708659 19.5,9 L19.5,11 L20,11 L20,16.25 C20,17.216 19.104,18 18,18 L14,18 L14,11 L17.5,11 Z" id="Combined-Shape"></path>
            <path d="M8.26783542,23 C8.61380804,22.4023408 9.26020374,22 10,22 C11.104,22 12,22.896 12,24 C12,25.104 11.104,26 10,26 C9.26020374,26 8.61380804,25.5976592 8.26783542,25 L4,25 C2.34371525,25 1,23.6562847 1,22 L1,20 L3,20 L3,22 C3,22.5517153 3.44828475,23 4,23 L8.26783542,23 Z" id="Combined-Shape"></path>
        </g>
    </g>
</svg>