<svg xmlns="http://www.w3.org/2000/svg" xmlns:xlink="http://www.w3.org/1999/xlink" width="26" height="26" viewBox="0 0 26 26">
    <defs>
        <path id="a" d="M17 14.002V19a1 1 0 0 0 1 1h1.998a1 1 0 0 0 .832-1.555l-1.998-4.998a.97.97 0 0 0-.821-.447c-.509 0-1.011.384-1.011 1.002z"/>
        <path id="b" d="M.17 18.445A1 1 0 0 0 1.002 20H3a1 1 0 0 0 1-1v-4.998C4 13.384 3.5 13 2.989 13a.972.972 0 0 0-.821.447L.17 18.445z"/>
    </defs>
    <g fill="currentColor" fill-rule="evenodd" transform="rotate(45 14.496 14.51)">
        <path d="M7.5 28h2v-6h-2zM11.5 26h2v-4h-2z"/>
        <use xlink:href="#a"/>
        <use xlink:href="#b"/>
        <path d="M8 7.511a2.491 2.491 0 0 1 2.5-2.505c1.388 0 2.5 1.11 2.5 2.505a2.488 2.488 0 0 1-2.5 2.495c-1.388 0-2.5-1.11-2.5-2.495zM6 5.895v13.11a1 1 0 0 0 1 1h7a1 1 0 0 0 1-1V5.896c.005-2.204-1.32-4.118-3.978-5.741a1 1 0 0 0-1.044 0C7.326 1.777 6 3.691 6 5.895z"/>
    </g>
</svg>
