<?xml version="1.0" encoding="UTF-8" standalone="no"?>
<svg width="26px" height="26px" viewBox="0 0 26 26" version="1.1" xmlns="http://www.w3.org/2000/svg" xmlns:xlink="http://www.w3.org/1999/xlink">
    <!-- Generator: Sketch 43.2 (39069) - http://www.bohemiancoding.com/sketch -->
    <title>TeamMembers</title>
    <desc>Created with Sketch.</desc>
    <defs></defs>
    <g id="Page-1" stroke="none" stroke-width="1" fill-rule="evenodd">
        <g id="TeamMembers">
            <path d="M21.0222,12.8005 C23.1022,13.2635 24.7722,15.4135 25.3142,17.0305 C25.4762,17.5145 25.1052,18.0115 24.5952,18.0115 L21.4822,18.0115 C20.6732,16.3125 19.3492,14.6925 17.5772,13.6295 C18.5372,12.5515 19.0812,11.1575 19.0812,9.6825 C19.0812,8.6895 18.8342,7.7535 18.4052,6.9255 C18.8252,6.7595 19.2852,6.6535 19.7552,6.6535 C21.6002,6.6535 23.1212,8.1955 23.1212,10.0405 C23.1212,11.4505 22.2582,12.3105 21.0222,12.8005 Z M8.4097,13.6289 C6.6437,14.6939 5.3227,16.3129 4.5157,18.0119 L1.4047,18.0119 C0.8947,18.0119 0.5237,17.5149 0.6857,17.0309 C1.2277,15.4139 2.8987,13.2629 4.9777,12.8009 C3.7417,12.3109 2.8787,11.4509 2.8787,10.0399 C2.8787,8.1949 4.3997,6.6539 6.2447,6.6539 C6.7187,6.6539 7.1837,6.7609 7.6077,6.9299 C7.1687,7.7719 6.9177,8.7269 6.9177,9.7409 C6.9177,11.1959 7.4567,12.5679 8.4097,13.6289 Z M15.4233,14.8003 C17.0163,15.3993 18.3153,16.6333 19.1883,18.0113 C19.6073,18.6733 19.9323,19.3673 20.1353,20.0433 C20.2793,20.5213 19.9073,21.0003 19.4073,21.0003 L6.5913,21.0003 C6.0923,21.0003 5.7193,20.5213 5.8633,20.0433 C6.0663,19.3673 6.3903,18.6733 6.8083,18.0113 C7.6813,16.6303 8.9793,15.3933 10.5713,14.7923 C10.9263,14.6583 11.1753,14.3343 11.2133,13.9563 C11.2513,13.5793 11.0723,13.2123 10.7513,13.0103 C9.5853,12.2763 8.9173,11.0853 8.9173,9.7413 C8.9173,8.6803 9.3313,7.7213 9.9913,6.9923 C10.7383,6.1673 11.8043,5.6393 12.9993,5.6393 C14.2033,5.6393 15.2763,6.1683 16.0243,6.9923 C16.6743,7.7083 17.0813,8.6463 17.0813,9.6823 C17.0813,11.0313 16.3913,12.2803 15.2353,13.0233 C14.9163,13.2273 14.7403,13.5933 14.7803,13.9693 C14.8203,14.3453 15.0693,14.6673 15.4233,14.8003 Z" id="Combined-Shape"></path>
        </g>
    </g>
</svg>