<?xml version="1.0" encoding="UTF-8" standalone="no"?>
<svg width="26px" height="26px" viewBox="0 0 26 26" version="1.1" xmlns="http://www.w3.org/2000/svg" xmlns:xlink="http://www.w3.org/1999/xlink">
    <!-- Generator: Sketch 43.2 (39069) - http://www.bohemiancoding.com/sketch -->
    <title>Articles</title>
    <desc>Created with Sketch.</desc>
    <defs></defs>
    <g id="Page-1" stroke="none" stroke-width="1" fill-rule="evenodd">
        <g id="Articles">
            <path d="M17.9999,24 L3.9989,24 C3.4469,24 2.9989,23.552 2.9989,23 L2.9989,6 C2.9989,5.448 3.4469,5 3.9989,5 L4.9989,5 L4.9989,22 L18.9999,22 L18.9999,23 C18.9999,23.552 18.5519,24 17.9999,24 Z M21,2 C21.552,2 22,2.447 22,2.999 L22,18.999 C22,19.552 21.552,20 21,20 L8,20 C7.448,20 7,19.552 7,18.999 L7,2.999 C7,2.447 7.448,2 8,2 L13,2 L19,2 L21,2 Z M11,8 L18,8 L18,6 L11,6 L11,8 Z M11,12 L18,12 L18,10 L11,10 L11,12 Z M11,16 L15,16 L15,14 L11,14 L11,16 Z" id="Combined-Shape"></path>
        </g>
    </g>
</svg>