<svg xmlns="http://www.w3.org/2000/svg" width="26" height="26">
  <path fill-rule="evenodd" d="M21 19v-2h-1v2h-2v1h2v2h1v-2h2v-1h-2zm-3.776-4.896A6.995 6.995 0 0 0 14 20H2.973c-.64 0-1.118-.592-.933-1.184.26-.836.676-1.694 1.211-2.513 1.12-1.708 2.783-3.238 4.824-3.982.455-.165.774-.566.823-1.034a1.224 1.224 0 0 0-.593-1.17c-1.494-.908-2.35-2.38-2.35-4.043 0-1.313.53-2.499 1.376-3.4a5.306 5.306 0 0 1 7.733 0c.833.885 1.355 2.045 1.355 3.327 0 1.668-.884 3.213-2.366 4.132a1.22 1.22 0 0 0-.583 1.17c.05.465.37.864.824 1.028 1.093.397 2.079 1.02 2.93 1.773zM20.5 24a4.5 4.5 0 1 1 0-9 4.5 4.5 0 0 1 0 9z"/>
</svg>