<?xml version="1.0" encoding="UTF-8" standalone="no"?>
<svg width="26px" height="26px" viewBox="0 0 26 26" version="1.1" xmlns="http://www.w3.org/2000/svg" xmlns:xlink="http://www.w3.org/1999/xlink">
    <!-- Generator: Sketch 43.2 (39069) - http://www.bohemiancoding.com/sketch -->
    <title>Insights</title>
    <desc>Created with Sketch.</desc>
    <defs></defs>
    <g id="Page-1" stroke="none" stroke-width="1" fill-rule="evenodd">
        <g id="Insights">
            <path d="M13,3 C13.552,3 14,3.448 14,4 L14,22 C14,22.552 13.552,23 13,23 L12,23 C11.448,23 11,22.552 11,22 L11,4 C11,3.448 11.448,3 12,3 L13,3 Z M8,11 L8,22 C8,22.552 7.552,23 7,23 L6,23 C5.448,23 5,22.552 5,22 L5,11 C5,10.448 5.448,10 6,10 L7,10 C7.552,10 8,10.448 8,11 Z M20,8 L20,22 C20,22.552 19.552,23 19,23 L18,23 C17.448,23 17,22.552 17,22 L17,8 C17,7.448 17.448,7 18,7 L19,7 C19.552,7 20,7.448 20,8 Z" id="Combined-Shape"></path>
        </g>
    </g>
</svg>