<svg xmlns="http://www.w3.org/2000/svg" width="148" height="94" viewBox="0 0 148 94">
    <g fill="none" fill-rule="evenodd">
        <path fill="#E0E3E5" d="M60 73.94a9.061 9.061 0 0 0-9.061-9.061c-1.21 0-5.365.242-6.42.673.427-1.33.663-2.747.663-4.219 0-5.392-3.102-10.047-7.612-12.313V83h13.369A9.061 9.061 0 0 0 60 73.94M86.794 38.052H100v-3.199a2.203 2.203 0 0 0-2.203-2.203H83.792v2.401a3.002 3.002 0 0 0 3.002 3.001"/>
        <path fill="#E0E3E5" d="M99.545 33.367H83.854a2.733 2.733 0 0 1-2.733-2.732V15.222"/>
        <path stroke="#66747C" stroke-linecap="square" stroke-linejoin="round" stroke-width="2" d="M99.17 33.813H83.9a3.123 3.123 0 0 1-3.123-3.123V15.416"/>
        <path stroke="#66747C" stroke-linecap="round" stroke-linejoin="round" stroke-width="2" d="M96.877 92.679H40.692a3.123 3.123 0 0 1-3.122-3.123V17.764a3.123 3.123 0 0 1 3.122-3.123h38.607c.955 0 1.871.38 2.547 1.056l17.099 17.099A3.602 3.602 0 0 1 100 35.343v54.213a3.123 3.123 0 0 1-3.123 3.123zM60 68.768h17.764M60 74.92h14.75M54.794 46.62H82M54.794 52.772h17.412"/>
        <path stroke="#E0E3E5" stroke-width="2" d="M105.5 19.742a3.26 3.26 0 1 1-6.52 0 3.26 3.26 0 0 1 6.52 0z"/>
        <path fill="#E0E3E5" d="M92.75 11.8A1.5 1.5 0 1 1 94.252 9.2a1.5 1.5 0 0 1-1.502 2.598M100.75 2.8A1.5 1.5 0 1 1 102.252.2a1.5 1.5 0 0 1-1.502 2.598"/>
        <path fill="#F5F9FC" d="M13.606 53.788c.16 0 .313.018.471.023C15.635 47.906 21 43.545 27.393 43.545c7.615 0 13.788 6.173 13.788 13.788 0 1.473-.235 2.89-.663 4.22 1.056-.432 5.21-.674 6.421-.674a9.06 9.06 0 1 1 0 18.121H13.606C6.643 79 1 73.356 1 66.394s5.643-12.606 12.606-12.606"/>
        <path stroke="#66747C" stroke-linecap="round" stroke-linejoin="round" stroke-width="2" d="M13.606 53.788c.16 0 .313.018.471.023C15.635 47.906 21 43.545 27.393 43.545c7.615 0 13.788 6.173 13.788 13.788 0 1.473-.235 2.89-.663 4.22 1.056-.432 5.21-.674 6.421-.674a9.06 9.06 0 1 1 0 18.121H13.606C6.643 79 1 73.356 1 66.394s5.643-12.606 12.606-12.606z"/>
        <path fill="#F5F9FC" d="M138.03 28.379c-.113 0-.223.013-.335.017-1.109-4.202-4.925-7.305-9.476-7.305-5.418 0-9.81 4.392-9.81 9.81 0 1.048.168 2.056.472 3.002a6.447 6.447 0 1 0-2.434 12.415h21.583a8.97 8.97 0 1 0 0-17.94"/>
        <path stroke="#66747C" stroke-linecap="round" stroke-linejoin="round" stroke-width="2" d="M138.03 28.379c-.113 0-.223.013-.335.017-1.109-4.202-4.925-7.305-9.476-7.305-5.418 0-9.81 4.392-9.81 9.81 0 1.048.168 2.056.472 3.002a6.447 6.447 0 1 0-2.434 12.415h21.583a8.97 8.97 0 1 0 0-17.94z"/>
        <path fill="#C2C7CB" d="M120.887 52.162l-8.484 8.485a1 1 0 0 1-1.414-1.414l8.484-8.485a.999.999 0 1 1 1.414 1.414M129.13 52.404L118.525 63.01a.999.999 0 1 1-1.414-1.414l10.606-10.606a1 1 0 1 1 1.415 1.414M137.373 52.647l-1.414 1.413a.999.999 0 1 1-1.414-1.413l1.414-1.414a.999.999 0 1 1 1.414 1.414M133.13 56.89l-1.414 1.413a.999.999 0 1 1-1.414-1.414l1.414-1.414a1 1 0 1 1 1.415 1.414M23.13 84.647l-3.534 3.535a1 1 0 1 1-1.415-1.414l3.535-3.535a1 1 0 0 1 1.414 1.414M16.888 84.405l-6.363 6.363a1 1 0 1 1-1.414-1.414l6.363-6.364a1 1 0 0 1 1.414 1.415"/>
    </g>
</svg>
