<svg xmlns="http://www.w3.org/2000/svg" width="104" height="96" viewBox="0 0 104 96">
    <g fill="none" fill-rule="evenodd">
        <path fill="#D8D8D8" fill-rule="nonzero" d="M14 91c-1.105 0-2-1.105-2 0a2 2 0 0 0 2 2h53a2 2 0 0 0 2-2c0-1.105-.895 0-2 0H14zm0 0h53c2.761 0 5-2.761 5 0a5 5 0 0 1-5 5H14a5 5 0 0 1-5-5c0-2.761 2.239 0 5 0z"/>
        <path fill="#577083" fill-rule="nonzero" d="M14 86a2 2 0 1 0 0 4h53a2 2 0 1 0 0-4H14zm0-3h53a5 5 0 0 1 0 10H14a5 5 0 0 1 0-10z"/>
        <path fill="#D8D8D8" fill-rule="nonzero" d="M93.24 41.5v35.713c0 6.285-5.096 11.38-11.381 11.38-6.286 0-11.381-5.095-11.381-11.38V66.039a2.5 2.5 0 0 0-2.5-2.5h-3.692v-3h3.692a5.5 5.5 0 0 1 5.5 5.5v11.174a8.38 8.38 0 0 0 8.38 8.38c4.63 0 9.382-3.752 9.382-8.38V44.5l2-3z"/>
        <path fill="#577083" fill-rule="nonzero" d="M87.953 41.5v33.079a4.75 4.75 0 1 1-9.501 0V61.475a6.5 6.5 0 0 0-6.5-6.5h-7.238v-3h7.238a9.5 9.5 0 0 1 9.5 9.5v13.104a1.75 1.75 0 0 0 3.501 0V38.5h9v37.213c0 6.01-4.871 10.88-10.88 10.88-6.01 0-10.881-4.87-10.881-10.88V64.039a2.5 2.5 0 0 0-2.5-2.5H64v-3h5.692a5.5 5.5 0 0 1 5.5 5.5v11.674a7.88 7.88 0 0 0 15.761 0V41.5h-3z"/>
        <path fill="#577083" fill-rule="nonzero" d="M19 83h43V25a5 5 0 0 0-5-5H24a5 5 0 0 0-5 5v58zm5-66h33a8 8 0 0 1 8 8v61H16V25a8 8 0 0 1 8-8z"/>
        <path fill="#D8D8D8" fill-rule="nonzero" d="M40.5 61c-7.732 0-14-7.268-14-15 1.126 1.157 1.382 2.679 3.346 3.298 2.292.723 6.49.447 10.654.447 4.31 0 7.977.355 10.229-.447 1.788-.636 2.396-2.307 3.771-3.298 0 7.732-6.268 15-14 15zm0-2c4.05 0 7.883-3.085 11.5-9.255H29.71C32.853 55.915 36.45 59 40.5 59z"/>
        <path fill="#C2C7CB" d="M6 25.5a1.5 1.5 0 1 1-3 0 1.5 1.5 0 0 1 3 0M28 6.5a1.5 1.5 0 1 1-3 0 1.5 1.5 0 0 1 3 0"/>
        <path fill="#C2C7CB" fill-rule="nonzero" d="M14 11a1 1 0 0 1 0-2h6.005a1 1 0 1 1 0 2H14z"/>
        <path fill="#C2C7CB" fill-rule="nonzero" d="M18 12.999a1 1 0 0 1-2 0v-5.97a1 1 0 0 1 2 0V13z"/>
        <path fill="#577083" fill-rule="nonzero" d="M71.5 40a3.5 3.5 0 0 1-3.5-3.5v-5a3.5 3.5 0 0 1 3.5-3.5H96v15.5a4.5 4.5 0 0 1-4.5 4.5h-6.816a3.5 3.5 0 0 1-3.228-2.147L79.002 40H71.5zM93 31H71.5a.5.5 0 0 0-.5.5v5a.5.5 0 0 0 .5.5h9.498l3.225 7.693a.5.5 0 0 0 .46.307H91.5a1.5 1.5 0 0 0 1.5-1.5V31z"/>
        <path fill="#FFF" stroke="#577083" stroke-width="3" d="M94.5 43.5v-14h-23a2 2 0 0 0-2 2v5a2 2 0 0 0 2 2H80l2.84 6.773a2 2 0 0 0 1.844 1.227H91.5a3 3 0 0 0 3-3z"/>
        <path fill="#F79A94" d="M29.597 50.804h22.267c-2.111 4.888-5.822 7.16-11.134 6.816-5.31-.344-9.022-2.616-11.133-6.816z"/>
        <path fill="#577083" fill-rule="nonzero" d="M40.5 59c-7.732 0-14-6.268-14-14s6.268-14 14-14 14 6.268 14 14-6.268 14-14 14zm0-3c6.075 0 11-4.925 11-11s-4.925-11-11-11-11 4.925-11 11 4.925 11 11 11z"/>
        <path fill="#577083" fill-rule="nonzero" d="M50.75 49c.493-1.26.75-2.611.75-4 0-6.075-4.925-11-11-11s-11 4.925-11 11c0 1.389.257 2.74.75 4h20.5zm-22.825 2.16A13.948 13.948 0 0 1 26.5 45c0-7.732 6.268-14 14-14s14 6.268 14 14c0 2.163-.492 4.26-1.425 6.16l-.412.84H28.337l-.412-.84zM42.005 49L35.1 41.48a1.5 1.5 0 0 0-2.2 2.04c3.41 3.645 5.113 5.472 5.11 5.48-.004.008 1.328.008 3.995 0z"/>
        <path stroke="#577083" stroke-width="3" d="M74.661 29.972v8.49"/>
    </g>
</svg>
