<svg xmlns="http://www.w3.org/2000/svg" xmlns:xlink="http://www.w3.org/1999/xlink" width="79" height="86" viewBox="0 0 79 86">
    <defs>
        <path id="a" d="M0 .207h65V51H0z"/>
        <path id="c" d="M.474.208h19v19h-19z"/>
    </defs>
    <g fill="none" fill-rule="evenodd">
        <g transform="translate(0 34.792)">
            <mask id="b" fill="#fff">
                <use xlink:href="#a"/>
            </mask>
            <path fill="#E0E3E5" d="M65 39.3V3.114A2.908 2.908 0 0 0 62.093.207H2.907A2.908 2.908 0 0 0 0 3.114v46.43c0 1.213 1.398 1.892 2.352 1.142l9.205-7.236a5.815 5.815 0 0 1 3.593-1.243h46.943A2.908 2.908 0 0 0 65 39.3" mask="url(#b)"/>
        </g>
        <path fill="#F5F9FC" d="M69 70.093V33.907A2.908 2.908 0 0 0 66.093 31H6.907A2.908 2.908 0 0 0 4 33.907v46.429c0 1.214 1.398 1.893 2.352 1.143l9.205-7.236A5.815 5.815 0 0 1 19.15 73h46.943A2.908 2.908 0 0 0 69 70.093"/>
        <path stroke="#66747C" stroke-width="2" d="M69 70.093V33.907A2.908 2.908 0 0 0 66.093 31H6.907A2.908 2.908 0 0 0 4 33.907v46.429c0 1.214 1.398 1.893 2.352 1.143l9.205-7.236A5.815 5.815 0 0 1 19.15 73h46.943A2.908 2.908 0 0 0 69 70.093z"/>
        <path fill="#E0E3E5" d="M64.139 32.5l-3.664 3.664a3.393 3.393 0 0 0-1.001 2.417c0 .914.355 1.772 1.002 2.418a3.393 3.393 0 0 0 2.417 1c.913 0 1.77-.354 2.417-1l2.69-2.69v-5.876c0-.79-.643-1.433-1.433-1.433"/>
        <path fill="#F5F9FC" d="M73.346 38.292l-4.372-4.371-4.371 4.37a2.405 2.405 0 0 1-1.71.709 2.403 2.403 0 0 1-1.711-.71 2.402 2.402 0 0 1-.708-1.71c0-.645.252-1.253.709-1.71l4.37-4.37-4.37-4.371a2.4 2.4 0 0 1-.71-1.71c0-.647.253-1.254.71-1.711a2.404 2.404 0 0 1 1.71-.708c.646 0 1.253.252 1.71.708l4.37 4.372 4.372-4.372a2.406 2.406 0 0 1 1.71-.708c.646 0 1.253.252 1.71.708.457.457.709 1.064.709 1.71 0 .647-.252 1.255-.71 1.712l-4.37 4.37 4.37 4.37a2.4 2.4 0 0 1 .71 1.71c0 .648-.252 1.255-.71 1.712a2.404 2.404 0 0 1-1.71.708 2.4 2.4 0 0 1-1.708-.708z"/>
        <g transform="translate(59 20.792)">
            <mask id="d" fill="#fff">
                <use xlink:href="#c"/>
            </mask>
            <path fill="#66747C" d="M13.638 1.208L9.974 4.873 6.31 1.21A3.399 3.399 0 0 0 3.893.206c-.913 0-1.772.356-2.417 1.001A3.394 3.394 0 0 0 .474 3.627c0 .914.355 1.773 1.002 2.419l3.663 3.662-3.664 3.664A3.393 3.393 0 0 0 .474 15.79c0 .914.355 1.772 1.002 2.417a3.393 3.393 0 0 0 2.417 1.002c.913 0 1.77-.355 2.417-1.002l3.664-3.663 3.663 3.663a3.399 3.399 0 0 0 2.418 1.002c.913 0 1.77-.355 2.417-1.002a3.396 3.396 0 0 0 1.002-2.417c0-.913-.356-1.772-1.002-2.418l-3.663-3.664 3.664-3.664a3.395 3.395 0 0 0 1-2.417c0-.913-.355-1.771-1.001-2.417A3.395 3.395 0 0 0 16.055.206c-.913 0-1.771.356-2.417 1.001zm3.42 1.415a1.417 1.417 0 0 1 0 2.006L11.98 9.709l5.077 5.078a1.417 1.417 0 0 1-1.003 2.421c-.363 0-.727-.139-1.003-.416l-5.078-5.077-5.078 5.077a1.415 1.415 0 0 1-2.006 0 1.417 1.417 0 0 1 0-2.005l5.077-5.079L2.89 4.63a1.417 1.417 0 0 1 1.003-2.421c.363 0 .726.138 1.003.415L9.974 7.7l5.078-5.077c.276-.277.64-.416 1.003-.416.363 0 .727.14 1.003.417z" mask="url(#d)"/>
        </g>
        <path stroke="#66747C" stroke-width="2" d="M25.794 49.542H50M25.794 55.694h15.492"/>
        <path stroke="#E0E3E5" stroke-width="2" d="M42.52 19.26a3.26 3.26 0 1 1-6.52 0 3.26 3.26 0 0 1 6.52 0z"/>
        <path fill="#E0E3E5" d="M29.75 11.8a1.5 1.5 0 1 1 1.502-2.6 1.5 1.5 0 0 1-1.502 2.6M37.75 2.8A1.5 1.5 0 1 1 39.252.2a1.5 1.5 0 0 1-1.502 2.6"/>
    </g>
</svg>
