<svg xmlns="http://www.w3.org/2000/svg" xmlns:xlink="http://www.w3.org/1999/xlink" width="150" height="101" viewBox="0 0 150 101">
  <defs>
    <path id="no-tickets-a" d="M19.918,2.84217094e-14 C20.091,2.84217094e-14 20.262,0.002 20.434,0.006 C20.594,0.002 20.756,2.84217094e-14 20.918,2.84217094e-14 M0.837,19.878 L0.837,47 L40,47 L40,19.878 C40,8.186 31.242,0.251 20.434,0.006 C9.61,0.263 0.837,9.105 0.837,19.878"/>
  </defs>
  <g fill="none" fill-rule="evenodd" transform="translate(1)">
    <g transform="translate(18 8)">
      <g transform="translate(32)">
        <path fill="#FFF" d="M20.1054688,25.956181 L20.1054688,56 L71.081,56 C73.291,56 74.875,54.156 74.875,51.947 L75,20.491 C75.045,9.187 65.894,0 54.59,0 L3.87011719,0.150390625 C10.5478516,2.76041667 14.9127604,5.91927083 16.9648438,9.62695313 C19.0169271,13.3346354 20.0638021,18.7777114 20.1054688,25.956181 Z"/>
        <path stroke="#66747C" stroke-width="2" d="M20.0537109,56 L71.081,56 C73.291,56 74.875,54.156 74.875,51.947 L75,20.491 C75.045,9.187 65.894,0 54.59,0 L0.5,0"/>
      </g>
      <path stroke="#66747C" stroke-width="2" d="M11,49 L11,20.293 C11,9.132 20.225,0 31.5,0 C42.775,0 52,9.132 52,20.293 L52,49 L11,49 Z"/>
      <g transform="translate(0 49)">
        <path fill="#FFF" d="M52,7 L3.5,7 C1.575,7 0,5.425 0,3.5 C0,1.575 1.575,0 3.5,0 L52,0"/>
        <path stroke="#66747C" stroke-width="2" d="M52,7 L3.5,7 C1.575,7 0,5.425 0,3.5 C0,1.575 1.575,0 3.5,0 L52,0"/>
      </g>
      <g transform="translate(25 48)">
        <polyline fill="#FFF" points="0 8 27 8 27 1 0 1"/>
        <polyline stroke="#66747C" stroke-width="2" points="0 8 27 8 27 1 0 1"/>
      </g>
      <path fill="#E0E3E5" d="M71.9961,38 C69.1371,38 66.8181,36.682 66.8181,33.822 L66.8181,19 C66.8181,17.645 68.0231,16.535 69.4951,16.535 L71.8521,16.535 C73.3251,16.535 74.5291,17.645 74.5291,19 L74.5291,24.714 C74.5291,26.233 75.7611,27.465 77.2801,27.465 L97.0001,27.465 C98.2211,27.465 100.6561,29 100.6561,32 L100.6561,32.592 C100.6561,36.131 97.7881,38 94.2491,38 L71.9961,38 Z"/>
      <path fill="#F79A94" d="M66,34.4648 C63.833,34.4648 62.07,32.7018 62.07,30.5348 L62.07,15.4648 C62.07,13.5538 63.625,11.9998 65.535,11.9998 L68,11.9998 C69.91,11.9998 71.465,13.5538 71.465,15.4648 L71.465,27.4288 L93.964,27.4288 C95.638,27.4288 97,28.7908 97,30.4648 L97,31.4288 C97,33.1028 95.638,34.4648 93.964,34.4648 L66,34.4648 Z"/>
      <path fill="#66747C" d="M66.535,11 C64.073,11 62.07,13.003 62.07,15.465 L62.07,30.535 C62.07,33.253 64.281,35.0233154 67,35.0233154 L74,35.0233154 L93.964,35.0233154 C96.189,35.0233154 98,33.2723633 98,31.0473633 C98,28.8573633 96.189,26.9946289 93.964,26.9946289 L72.0079346,26.9946289 L72.0079346,15.465 C72.0079346,13.003 70.0049346,11 67.5429346,11 L66.535,11 Z M70.0079346,15.465 L70.0079346,28.9946289 L93.964,28.9946289 C95.089,28.9946289 96,29.9583633 96,31.0833633 C96,32.1713633 95.089,33.0233154 93.964,33.0233154 L74,33.0233154 L67,33.0233154 C65.389,33.0233154 64.07,32.146 64.07,30.535 L64.07,15.465 C64.07,14.109 65.18,13 66.535,13 L67.5429346,13 C68.8979346,13 70.0079346,14.109 70.0079346,15.465 Z"/>
      <path fill="#E0E3E5" d="M58,92 L52.902,92 C51.3,92 50,90.701 50,89.098 L50,56 L58,56 L58,92 Z"/>
      <path stroke="#66747C" stroke-width="2" d="M58 92L52.902 92C51.3 92 50 90.701 50 89.098L50 56 58 56 58 92zM65 92L58 92 58 56 67.902 56 67.902 89.098C67.902 90.701 66.603 92 65 92z"/>
    </g>
    <g transform="translate(29 9)">
      <mask id="no-tickets-b" fill="#fff">
        <use xlink:href="#no-tickets-a"/>
      </mask>
      <path fill="#E0E3E5" d="M35,37 L35,47 L46,47 L46,19.293 C46,8.132 36.775,-1 25.5,-1 C23.594,-1 21.754,-0.72 20,-0.232 C28.623,2.165 35,10.019 35,19.293 L35,37" mask="url(#no-tickets-b)"/>
    </g>
    <path stroke="#66747C" stroke-linecap="round" stroke-width="2" d="M0 91L68 91M87 91L148 91"/>
    <path fill="#C2C7CB" d="M21 12C21 12.55 21.45 13 22 13L26 13C26.55 13 27 12.55 27 12 27 11.45 26.55 11 26 11L22 11C21.45 11 21 11.45 21 12M32 1L32 5C32 5.55 32.45 6 33 6 33.55 6 34 5.55 34 5L34 1C34 .45 33.55 0 33 0 32.45 0 32 .45 32 1M24.5146 3.5146C24.1256 3.9036 24.1256 4.5396 24.5146 4.9286L27.3426 7.7576C27.7326 8.1466 28.3686 8.1466 28.7576 7.7576 29.1466 7.3686 29.1466 6.7316 28.7576 6.3436L25.9286 3.5146C25.5396 3.1256 24.9036 3.1256 24.5146 3.5146"/>
  </g>
</svg>
