<svg xmlns="http://www.w3.org/2000/svg" xmlns:xlink="http://www.w3.org/1999/xlink" width="22" height="22" viewBox="0 0 22 22">
  <defs>
    <path id="number-input-a" d="M11,5 L11,6 L7,6 C6.44771525,6 6,6.44771525 6,7 L6,15 C6,15.5522847 6.44771525,16 7,16 L15,16 C15.5522847,16 16,15.5522847 16,15 L16,11 L17,11 L17,15 C17,16.1045695 16.1045695,17 15,17 L7,17 C5.8954305,17 5,16.1045695 5,15 L5,7 C5,5.8954305 5.8954305,5 7,5 L11,5 Z M10,12 L10,8.66666667 L10.8333333,8.66666667 L10.8333333,10.5416667 L14.375,7 L15,7 L15,7.625 L11.4583333,11.1666667 L13.3333333,11.1666667 L13.3333333,12 L10,12 Z"/>
  </defs>
  <g fill="none" fill-rule="evenodd">
    <use fill="#000" fill-rule="nonzero" xlink:href="#number-input-a"/>
  </g>
</svg>
