<svg xmlns="http://www.w3.org/2000/svg" width="150" height="150" viewBox="0 0 150 150">
  <g fill="none" fill-rule="evenodd" transform="translate(21 37)">
    <g transform="translate(0 21)">
      <rect width="104" height="36" x="4" y="4" fill="#CBD2D9" rx="6"/>
      <rect width="104" height="36" fill="#FFF" stroke="#66747C" stroke-width="2" rx="6"/>
      <text fill="#66747C" font-family="FiraSans-Medium, Fira Sans" font-size="14" font-weight="400">
        <tspan x="12" y="23">6570963</tspan>
      </text>
      <path fill="#3899EC" stroke="#66747C" stroke-width="2" d="M91.0879211,26.122 L90.6726556,29.2474193 C90.5405832,30.2414374 89.6928327,30.984 88.6900789,30.984 L86.2536554,30.984 C85.1490859,30.984 84.2536554,30.0885695 84.2536554,28.984 C84.2536554,28.8959057 84.2594758,28.8079076 84.2710787,28.7205807 L84.6163446,26.122 L80.2339211,26.122 L79.8186556,29.2474193 C79.6865832,30.2414374 78.8388327,30.984 77.8360789,30.984 L75.3996554,30.984 C74.2950859,30.984 73.3996554,30.0885695 73.3996554,28.984 C73.3996554,28.8959057 73.4054758,28.8079076 73.4170787,28.7205807 L73.7623446,26.122 L72,26.122 C70.8954305,26.122 70,25.2265695 70,24.122 L70,22.552 C70,21.4474305 70.8954305,20.552 72,20.552 L74.4722895,20.552 L75.0854561,16.024 L73.258,16.024 C72.1534305,16.024 71.258,15.1285695 71.258,14.024 L71.258,12.454 C71.258,11.3494305 72.1534305,10.454 73.258,10.454 L75.8273859,10.454 L76.1792449,7.7426162 C76.3085893,6.74590327 77.1575436,6 78.1626141,6 L80.5998439,6 C81.7044134,6 82.5998439,6.8954305 82.5998439,8 C82.5998439,8.08606306 82.5942888,8.17203638 82.5832132,8.2573838 L82.2981561,10.454 L86.6813859,10.454 L87.0332449,7.7426162 C87.1625893,6.74590327 88.0115436,6 89.0166141,6 L91.4538439,6 C92.5584134,6 93.4538439,6.8954305 93.4538439,8 C93.4538439,8.08606306 93.4482888,8.17203638 93.4372132,8.2573838 L93.1521561,10.454 L94.918,10.454 C96.0225695,10.454 96.918,11.3494305 96.918,12.454 L96.918,14.024 C96.918,15.1285695 96.0225695,16.024 94.918,16.024 L92.4162331,16.024 L91.8266498,20.552 L93.66,20.552 C94.7645695,20.552 95.66,21.4474305 95.66,22.552 L95.66,24.122 C95.66,25.2265695 94.7645695,26.122 93.66,26.122 L91.0879211,26.122 Z M81.5577105,16.024 L80.9445439,20.552 L85.3557669,20.552 L85.9453502,16.024 L81.5577105,16.024 Z"/>
    </g>
    <g transform="translate(97)">
      <path stroke="#CBD2D9" stroke-linecap="round" stroke-width="2" d="M13 18L18.4839957 18M16 20.362L16 15M3 3L8.48399567 3M6 5.362L6 0"/>
      <path fill="#CBD2D9" d="M3.06825569,12.5 C3.06825569,13.328 2.38096641,14 1.53412784,14 C0.687289274,14 0,13.328 0,12.5 C0,11.672 0.687289274,11 1.53412784,11 C2.38096641,11 3.06825569,11.672 3.06825569,12.5"/>
    </g>
  </g>
</svg>
