<svg xmlns="http://www.w3.org/2000/svg" xmlns:xlink="http://www.w3.org/1999/xlink" width="32" height="32" viewBox="0 0 32 32">
  <defs>
    <path id="open-&amp;-assigned-to-me-copy-2-a" d="M21,21 L21,18.0992826 C19.4164766,17.3658473 17.7733163,17 16.0657762,17 C14.3583872,17 12.6710277,17.365317 11,18.0982623 L11,21 L21,21 Z M10,22 L10,17.4564247 L10.2893438,17.3220085 C12.1845486,16.4415812 14.1114847,16 16.0657762,16 C18.0281862,16 19.9151298,16.4458844 21.720976,17.3355867 L22,17.473056 L22,22 L10,22 Z M16,14 C17.1102217,14 18,13.1739597 18,12.179446 L18,10.820554 C18,9.82571553 17.1104328,9 16,9 C14.8895558,9 14,9.82569798 14,10.820554 L14,12.179446 C14,13.1742953 14.8895481,14 16,14 Z M16,15 C14.3532158,15 13,13.7439053 13,12.179446 L13,10.820554 C13,9.25608392 14.353227,8 16,8 C17.6467633,8 19,9.25610351 19,10.820554 L19,12.179446 C19,13.7435341 17.6465842,15 16,15 Z"/>
  </defs>
  <g fill="none" fill-rule="evenodd">
    <use fill="#20455E" fill-rule="nonzero" xlink:href="#open-&amp;-assigned-to-me-copy-2-a"/>
  </g>
</svg>
