<svg xmlns="http://www.w3.org/2000/svg" xmlns:xlink="http://www.w3.org/1999/xlink" width="34" height="34" viewBox="0 0 34 34">
  <defs>
    <path id="outbound-copy-a" d="M17.7456055,21.6804199 L19.6909242,19.7351012 L22.9157841,22.9599612 L21.2062616,24.6694837 C18.317758,24.6556134 14.8298502,23.1850747 12.6279297,20.9831543 C10.4260092,18.7812337 9.017338,15.5980262 9,12.7095225 L10.7095225,11 L13.9343825,14.22486 L11.9890638,16.1701788 C12.4259803,17.2173913 13.3838646,18.5142292 14.2403597,19.3707242 C15.0933872,20.2272193 16.6983928,21.2435035 17.7456055,21.6804199 Z M17.875,11.125 L23.125,11.125 L23.125,16.125 L21.3775024,14.375 L18.5823594,17.1681459 C18.1915416,17.5581791 17.5585715,17.5580661 17.1681459,17.1676405 L17.0821068,17.0821068 C16.6915824,16.6915824 16.6915825,16.0584175 17.0821068,15.6678932 L19.875,12.875 L17.875,11.125 Z"/>
  </defs>
  <g fill="none" fill-rule="evenodd">
    <use fill="#20455E" fill-rule="nonzero" xlink:href="#outbound-copy-a"/>
  </g>
</svg>
