<?xml version="1.0" encoding="UTF-8"?>
<svg width="8px" height="10px" viewBox="0 0 8 10" version="1.1" xmlns="http://www.w3.org/2000/svg" xmlns:xlink="http://www.w3.org/1999/xlink">
    <defs></defs>
    <g id="Symbols" stroke="none" stroke-width="1" fill="none" fill-rule="evenodd">
        <path d="M1.5,0 C2.32842712,0 3,0.671572875 3,1.5 L3,8.5 C3,9.32842712 2.32842712,10 1.5,10 C0.671572875,10 0,9.32842712 0,8.5 L0,1.5 C0,0.671572875 0.671572875,0 1.5,0 Z M6.5,0 C7.32842712,0 8,0.671572875 8,1.5 L8,8.5 C8,9.32842712 7.32842712,10 6.5,10 C5.67157288,10 5,9.32842712 5,8.5 L5,1.5 C5,0.671572875 5.67157288,0 6.5,0 Z M1.5,1 C1.22385763,1 1,1.22385763 1,1.5 L1,8.5 C1,8.77614237 1.22385763,9 1.5,9 C1.77614237,9 2,8.77614237 2,8.5 L2,1.5 C2,1.22385763 1.77614237,1 1.5,1 Z M6.5,1 C6.22385763,1 6,1.22385763 6,1.5 L6,8.5 C6,8.77614237 6.22385763,9 6.5,9 C6.77614237,9 7,8.77614237 7,8.5 L7,1.5 C7,1.22385763 6.77614237,1 6.5,1 Z" id="empty" fill="#3899EC" fill-rule="nonzero"></path>
    </g>
</svg>