<svg xmlns="http://www.w3.org/2000/svg" width="6" height="8" viewBox="0 0 6 8">
  <path d="M2.6134574,0.182841198 C2.70515735,0.0712072714 2.84426927,9.8805578e-18 3.00001254,0 C3.1557558,-9.8805578e-18 3.29486772,0.0712072715 3.38656768,0.182841198 L5.88412318,3.1799078 C6.06090522,3.39204625 6.03224319,3.7073286 5.82010474,3.88411064 C5.60796629,4.06089268 5.29268394,4.03223065 5.1159019,3.8200922 L3.50001254,1.88102497 L3.50001254,7.5 C3.50001254,7.77614237 3.27615491,8 3.00001254,8 C2.72387016,8 2.50001254,7.77614237 2.50001254,7.5 L2.50001254,1.88102497 L0.884123177,3.8200922 C0.707341137,4.03223065 0.392058786,4.06089268 0.179920337,3.88411064 C-0.0322181112,3.7073286 -0.0608801431,3.39204625 0.115901897,3.1799078 L2.6134574,0.182841198 Z"/>
</svg>
