<svg xmlns="http://www.w3.org/2000/svg" width="140" height="140" viewBox="0 0 140 140">
  <g fill="none" fill-rule="evenodd" transform="translate(26 20)">
    <path fill="#FFF" d="M7,9 L57,9 C59.7614237,9 62,11.2385763 62,14 L62,66 C62,68.7614237 59.7614237,71 57,71 L5,71 C2.23857625,71 3.89089055e-15,68.7614237 3.55271368e-15,66 L8.8817842e-16,16 C4.14730794e-16,12.1340068 3.13400675,9 7,9 Z"/>
    <path fill="#E0E3E5" d="M13,15 L60,15 L60,69 L6,69 L6,22 C6,18.1340068 9.13400675,15 13,15 Z"/>
    <path fill="#66747C" fill-rule="nonzero" d="M7,11 C4.23857625,11 2,13.2385763 2,16 L2,66 C2,67.6568542 3.34314575,69 5,69 L57,69 C58.6568542,69 60,67.6568542 60,66 L60,14 C60,12.3431458 58.6568542,11 57,11 L7,11 Z M7,9 L57,9 C59.7614237,9 62,11.2385763 62,14 L62,66 C62,68.7614237 59.7614237,71 57,71 L5,71 C2.23857625,71 0,68.7614237 0,66 L0,16 C0,12.1340068 3.13400675,9 7,9 Z"/>
    <path fill="#FFF" d="M17,19 L67,19 C69.7614237,19 72,21.2385763 72,24 L72,76 C72,78.7614237 69.7614237,81 67,81 L15,81 C12.2385763,81 10,78.7614237 10,76 L10,26 C10,22.1340068 13.1340068,19 17,19 Z"/>
    <path fill="#66747C" fill-rule="nonzero" d="M17,21 C14.2385763,21 12,23.2385763 12,26 L12,76 C12,77.6568542 13.3431458,79 15,79 L67,79 C68.6568542,79 70,77.6568542 70,76 L70,24 C70,22.3431458 68.6568542,21 67,21 L17,21 Z M17,19 L67,19 C69.7614237,19 72,21.2385763 72,24 L72,76 C72,78.7614237 69.7614237,81 67,81 L15,81 C12.2385763,81 10,78.7614237 10,76 L10,26 C10,22.1340068 13.1340068,19 17,19 Z"/>
    <path fill="#E0E3E5" d="M23,25 L70,25 L70,79 L16,79 L16,32 C16,28.1340068 19.1340068,25 23,25 Z"/>
    <rect width="62" height="62" x="20" y="29" fill="#FFF" rx="5"/>
    <path fill="#66747C" fill-rule="nonzero" d="M25,31 C23.3431458,31 22,32.3431458 22,34 L22,86 C22,87.6568542 23.3431458,89 25,89 L77,89 C78.6568542,89 80,87.6568542 80,86 L80,34 C80,32.3431458 78.6568542,31 77,31 L25,31 Z M25,29 L77,29 C79.7614237,29 82,31.2385763 82,34 L82,86 C82,88.7614237 79.7614237,91 77,91 L25,91 C22.2385763,91 20,88.7614237 20,86 L20,34 C20,31.2385763 22.2385763,29 25,29 Z"/>
    <path fill="#66747C" fill-rule="nonzero" d="M28 61C27.4477153 61 27 60.5522847 27 60 27 59.4477153 27.4477153 59 28 59L74 59C74.5522847 59 75 59.4477153 75 60 75 60.5522847 74.5522847 61 74 61L28 61zM28 47C27.4477153 47 27 46.5522847 27 46 27 45.4477153 27.4477153 45 28 45L74 45C74.5522847 45 75 45.4477153 75 46 75 46.5522847 74.5522847 47 74 47L28 47z"/>
    <circle cx="52" cy="75" r="4" fill="#4EB7F5"/>
    <circle cx="69" cy="75" r="4" fill="#F79A94"/>
    <circle cx="33" cy="75" r="4" fill="#3CC7C5"/>
    <path fill="#66747C" fill-rule="nonzero" d="M52 80C49.2385763 80 47 77.7614237 47 75 47 72.2385763 49.2385763 70 52 70 54.7614237 70 57 72.2385763 57 75 57 77.7614237 54.7614237 80 52 80zM52 78C53.6568542 78 55 76.6568542 55 75 55 73.3431458 53.6568542 72 52 72 50.3431458 72 49 73.3431458 49 75 49 76.6568542 50.3431458 78 52 78zM69 80C66.2385763 80 64 77.7614237 64 75 64 72.2385763 66.2385763 70 69 70 71.7614237 70 74 72.2385763 74 75 74 77.7614237 71.7614237 80 69 80zM69 78C70.6568542 78 72 76.6568542 72 75 72 73.3431458 70.6568542 72 69 72 67.3431458 72 66 73.3431458 66 75 66 76.6568542 67.3431458 78 69 78zM33 80C30.2385763 80 28 77.7614237 28 75 28 72.2385763 30.2385763 70 33 70 35.7614237 70 38 72.2385763 38 75 38 77.7614237 35.7614237 80 33 80zM33 78C34.6568542 78 36 76.6568542 36 75 36 73.3431458 34.6568542 72 33 72 31.3431458 72 30 73.3431458 30 75 30 76.6568542 31.3431458 78 33 78z"/>
    <path fill="#E0E3E5" fill-rule="nonzero" d="M6 96L4 96C3.44771525 96 3 95.5522847 3 95 3 94.4477153 3.44771525 94 4 94L6 94 6 92C6 91.4477153 6.44771525 91 7 91 7.55228475 91 8 91.4477153 8 92L8 94 10 94C10.5522847 94 11 94.4477153 11 95 11 95.5522847 10.5522847 96 10 96L8 96 8 98C8 98.5522847 7.55228475 99 7 99 6.44771525 99 6 98.5522847 6 98L6 96zM76 5L74 5C73.4477153 5 73 4.55228475 73 4 73 3.44771525 73.4477153 3 74 3L76 3 76 1C76 .44771525 76.4477153-8.37108161e-14 77 0 77.5522847 8.37108161e-14 78 .44771525 78 1L78 3 80 3C80.5522847 3 81 3.44771525 81 4 81 4.55228475 80.5522847 5 80 5L78 5 78 7C78 7.55228475 77.5522847 8 77 8 76.4477153 8 76 7.55228475 76 7L76 5zM87 17L85 17C84.4477153 17 84 16.5522847 84 16 84 15.4477153 84.4477153 15 85 15L87 15 87 13C87 12.4477153 87.4477153 12 88 12 88.5522847 12 89 12.4477153 89 13L89 15 91 15C91.5522847 15 92 15.4477153 92 16 92 16.5522847 91.5522847 17 91 17L89 17 89 19C89 19.5522847 88.5522847 20 88 20 87.4477153 20 87 19.5522847 87 19L87 17z"/>
  </g>
</svg>
