<svg xmlns="http://www.w3.org/2000/svg" xmlns:xlink="http://www.w3.org/1999/xlink" width="18" height="16" viewBox="0 0 18 16">
  <defs>
    <path id="refresh-a" d="M14.6585886,10 L12,10 C11.4477153,10 11,9.55228475 11,9 C11,8.44771525 11.4477153,8 12,8 L15,8 L17,8 C17,8.00092365 16.9999998,8.00184725 16.9999995,8.00277083 C17.5172501,8.0411278 17.9249904,8.47294748 17.9249904,9 L17.9249904,14.0123996 C17.9249904,14.5646843 17.4772751,15.0123996 16.9249904,15.0123996 C16.3727056,15.0123996 15.9249904,14.5646843 15.9249904,14.0123996 L15.9249904,12.0082037 C14.5405888,14.3948844 11.9577418,16 9,16 C5.88763824,16 3.0983744,14.2060542 1.77926689,11.4477571 L3.58355521,10.5848877 C4.57340454,12.6546951 6.66511228,14 9,14 C11.6124377,14 13.8349158,12.3303847 14.6585886,10 Z M3.33704419,6.01239958 L5.92499037,6.01239958 C6.47727512,6.01239958 6.92499037,6.46011483 6.92499037,7.01239958 C6.92499037,7.56468433 6.47727512,8.01239958 5.92499037,8.01239958 L1,8.01239958 C0.44771525,8.01239958 -3.76453835e-16,7.56468433 -4.4408921e-16,7.01239958 L0,2 C-6.76353751e-17,1.44771525 0.44771525,1 1,1 C1.55228475,1 2,1.44771525 2,2 L2,4.12399283 C3.36472892,1.66457529 5.98797327,0 9,0 C12.1294343,0 14.9312545,1.81370737 16.2411173,4.59519577 L14.4317124,5.44728357 C13.448838,3.36015382 11.3476686,2 9,2 C6.38293123,2 4.1572058,3.67554002 3.33704419,6.01239958 Z"/>
  </defs>
  <g fill="none" fill-rule="evenodd">
    <use fill="#3899EC" fill-rule="nonzero" xlink:href="#refresh-a"/>
  </g>
</svg>
