<svg xmlns="http://www.w3.org/2000/svg" xmlns:xlink="http://www.w3.org/1999/xlink" width="32" height="32" viewBox="0 0 32 32">
  <defs>
    <path id="open-&amp;-assigned-to-me-copy-3-a" d="M22.6945983,12.1645232 C22.4647412,11.8266324 22.1245538,11.5983563 21.7449613,11.5248286 C21.3614346,11.4474445 20.9555473,11.5274072 20.607495,11.7531079 C20.1950509,12.020076 19.8995208,12.463722 19.8220488,12.8816118 L19.7248524,13.1163393 L18.2813315,9.53338898 C17.9096072,8.60737526 16.929775,8.12117432 16.1009526,8.44100513 C15.8474504,8.53902451 15.6359862,8.71313371 15.470484,8.93110202 C15.0344014,8.18050496 14.1740724,7.80906936 13.4214442,8.09796372 C12.7975325,8.34171792 12.43371,8.97626859 12.4494802,9.66882265 C12.1946666,9.63013062 11.9332693,9.64560875 11.6850496,9.74233718 C10.9376669,10.0338101 10.568599,10.8850052 10.7735097,11.7284776 C10.5068736,11.6807589 10.2323491,11.6936551 9.97229338,11.7929621 C9.14481595,12.1153881 8.77178029,13.1303944 9.14481595,14.0551205 L10.8470812,18.2762798 L10.900935,18.4078307 L11.0769416,18.8437475 L12.0410374,21.2335807 C12.4771199,22.316918 13.3203675,23.1707246 14.4171138,23.6350026 C14.9897811,23.8774692 15.5913658,24 16.1955733,24 C16.7485363,24 17.2988765,23.8968234 17.8282348,23.6917613 L18.9972412,23.2364968 C21.067263,22.4330073 22.1994837,20.2598614 21.6465207,18.073707 L22.9573574,13.608886 C23.0637503,13.0942909 22.96918,12.568107 22.6946622,12.1644143 L22.6945983,12.1645232 Z M21.9367246,13.3600836 L20.5943477,17.9256049 C20.5549425,18.063604 20.5746468,18.2041816 20.6416345,18.3202511 L20.6416345,18.3228297 C21.0855853,19.9543069 20.2134538,21.6541943 18.6070535,22.2772157 L17.438047,22.7324801 C16.5934881,23.0574879 15.6701122,23.0433008 14.8307987,22.6886309 C13.9927967,22.3313924 13.346558,21.680076 13.0142758,20.8546635 L11.9280204,18.1630596 L10.1180544,13.6774382 C9.96306332,13.2879426 10.0720823,12.8649352 10.3571079,12.7539998 C10.6381926,12.6417965 11.0177717,12.8778116 11.1832739,13.2840796 L13.3045402,17.9965244 C13.4201261,18.2583353 13.7327208,18.3731105 13.9967443,18.2609139 C14.2620656,18.1474197 14.3828937,17.8430571 14.2646951,17.5812363 L13.7800245,16.5056248 C13.7734575,16.4746718 13.7760836,16.4437189 13.7629497,16.4140568 L11.8321354,11.6266647 C11.6771444,11.237169 11.787478,10.8141617 12.0725003,10.7032262 C12.3457034,10.5948892 12.7345091,10.8334862 12.8894867,11.2216843 L14.2646816,14.5104246 L14.5221213,15.1488316 C14.5260622,15.1591493 14.53657,15.1630188 14.5418222,15.1720488 L14.8806949,15.9845518 C14.9923399,16.2489413 15.3010073,16.3753351 15.5663421,16.2657071 C15.8342896,16.158661 15.9630161,15.8555762 15.8526791,15.5924677 L15.2090631,14.0512576 L13.567222,9.98098373 C13.4109196,9.59148811 13.5212499,9.16848074 13.8062755,9.05754531 C14.0834194,8.95049922 14.4682843,9.18909624 14.6285074,9.58504989 L16.7038083,14.3169744 C16.7169456,14.3453454 16.7379579,14.3646931 16.7537212,14.387907 L17.1989834,15.4919127 C17.3066876,15.7575931 17.6140503,15.8865588 17.8793515,15.782098 C18.1499284,15.6763428 18.281271,15.3771176 18.1748849,15.1127545 L16.2440706,10.322721 C16.1626342,10.1202374 16.1508151,9.89839296 16.2125472,9.71396281 C16.2427592,9.62368249 16.31894,9.46376048 16.4831241,9.40056361 C16.773402,9.29222987 17.1516898,9.53211454 17.3027333,9.9138711 L19.7195296,15.9070258 L20.8228328,13.1754388 C20.8727458,12.9394237 21.0080326,12.7291879 21.1866553,12.6144225 C21.2667769,12.5615433 21.3941853,12.5086674 21.5360526,12.5357508 C21.6779097,12.5641219 21.7685391,12.6595627 21.8210782,12.7356558 C21.9366641,12.909765 21.9773806,13.1586632 21.9366641,13.3598657 L21.9367246,13.3600836 Z"/>
  </defs>
  <g fill="none" fill-rule="evenodd">
    <use fill="#20455E" xlink:href="#open-&amp;-assigned-to-me-copy-3-a"/>
  </g>
</svg>
