<?xml version="1.0" encoding="UTF-8"?>
<svg width="40px" height="40px" viewBox="0 0 40 40" version="1.1" xmlns="http://www.w3.org/2000/svg" xmlns:xlink="http://www.w3.org/1999/xlink">
    <!-- Generator: Sketch 48.2 (47327) - http://www.bohemiancoding.com/sketch -->
    <title>Reply</title>
    <desc>Created with Sketch.</desc>
    <defs></defs>
    <g id="SVG" stroke="none" stroke-width="1" fill="none" fill-rule="evenodd">
        <g id="Reply" stroke="#7A92A5">
            <path d="M12.4720173,23.1959545 C12.4984649,23.1878059 12.5700431,23.1959877 12.6937317,23.1959877 C12.9655533,23.1959877 13.3491831,23.1521988 13.9284807,23.0588811 C14.2213939,23.0116964 15.4748126,22.7933956 15.7739474,22.743655 C17.62582,22.4357224 19.097462,22.2777778 20.624308,22.2777778 L21.124308,22.2777778 L21.124308,23.5897381 C21.124308,23.7626771 21.1730147,23.9319787 21.2646463,24.0778522 C21.5306115,24.5012575 22.0846317,24.6267558 22.4637439,24.3878449 L27.0798852,20.7698305 C27.192502,20.6980236 27.2880182,20.6017906 27.3594819,20.4880235 C27.6268474,20.0623891 27.501011,19.4985072 27.0401023,19.2018026 L22.5035268,15.6401596 C22.3598717,15.548562 22.1935786,15.5 22.0238848,15.5 C21.5279026,15.5 21.124308,15.9066236 21.124308,16.4100807 L21.124308,17.5363514 L20.8413036,17.6726808 C16.1074944,19.953059 13.348989,21.7711123 12.6286304,23.0266102 C12.5550593,23.1548358 12.524405,23.2268578 12.5016002,23.2442123 Z" id="Combined-Shape"></path>
        </g>
    </g>
</svg>