<svg xmlns="http://www.w3.org/2000/svg" width="35" height="34" viewBox="0 0 35 34">
  <g fill="currentColor" transform="translate(7 9)">
    <path d="M1 1L1 3 7 3 7 1 1 1zM1 0L7 0C7.55228475 0 8 .44771525 8 1L8 3C8 3.55228475 7.55228475 4 7 4L1 4C.44771525 4 0 3.55228475 0 3L0 1C0 .44771525.44771525 0 1 0zM1 7L1 9 7 9 7 7 1 7zM1 6L7 6C7.55228475 6 8 6.44771525 8 7L8 9C8 9.55228475 7.55228475 10 7 10L1 10C.44771525 10 0 9.55228475 0 9L0 7C0 6.44771525.44771525 6 1 6zM13 1L13 3 20 3 20 1 13 1zM13 0L20 0C20.5522847 0 21 .44771525 21 1L21 3C21 3.55228475 20.5522847 4 20 4L13 4C12.4477153 4 12 3.55228475 12 3L12 1C12 .44771525 12.4477153 0 13 0zM13 7L13 9 20 9 20 7 13 7zM13 6L20 6C20.5522847 6 21 6.44771525 21 7L21 9C21 9.55228475 20.5522847 10 20 10L13 10C12.4477153 10 12 9.55228475 12 9L12 7C12 6.44771525 12.4477153 6 13 6zM1 13L1 15 7 15 7 13 1 13zM1 12L7 12C7.55228475 12 8 12.4477153 8 13L8 15C8 15.5522847 7.55228475 16 7 16L1 16C.44771525 16 0 15.5522847 0 15L0 13C0 12.4477153.44771525 12 1 12zM13 13L13 15 20 15 20 13 13 13zM13 12L20 12C20.5522847 12 21 12.4477153 21 13L21 15C21 15.5522847 20.5522847 16 20 16L13 16C12.4477153 16 12 15.5522847 12 15L12 13C12 12.4477153 12.4477153 12 13 12z"/>
  </g>
</svg>
