<svg xmlns="http://www.w3.org/2000/svg" xmlns:xlink="http://www.w3.org/1999/xlink" width="20" height="20" viewBox="0 0 20 20">
  <defs>
    <path id="-subfolder-copy-a" d="M11.6972244,6 L8.69722436,4 L3.00277202,4 C2.44890261,4 2.00622559,4.44595566 2.00622559,5.00585866 L2.00622559,14.9941413 C2.00622559,15.5515144 2.4523016,16 3.00062485,16 L17.0056007,16 C17.5535567,16 18,15.5502986 18,14.9914698 L18,6 L11.6972244,6 Z M1.00622559,5.00585866 C1.00622559,3.89805351 1.8922419,3 3.00277202,3 L9,3 L12,5 L19,5 L19,14.9914698 C19,16.1007504 18.1076859,17 17.0056007,17 L3.00062485,17 C1.89914855,17 1.00622559,16.1029399 1.00622559,14.9941413 L1.00622559,5.00585866 Z"/>
  </defs>
  <g fill-rule="evenodd">
    <use fill-rule="nonzero" xlink:href="#-subfolder-copy-a"/>
  </g>
</svg>
