<svg xmlns="http://www.w3.org/2000/svg" xmlns:xlink="http://www.w3.org/1999/xlink" width="20" height="20" viewBox="0 0 20 20">
    <defs>
        <path id="a" d="M10.697 3l-3-2H2.003a.996.996 0 0 0-.997 1.006v9.988A1 1 0 0 0 2.001 13h14.005c.548 0 .994-.45.994-1.009V3h-6.303zM.007 2.006C.006.898.891 0 2.002 0H8l3 2h7v9.991c0 1.11-.892 2.009-1.994 2.009H2a2 2 0 0 1-1.995-2.006V2.006z"/>
    </defs>
    <g fill="#20455E" fill-rule="evenodd" transform="translate(1 3)">
        <use fill-rule="nonzero" xlink:href="#a"/>
        <path d="M-8-10h34v34H-8z"/>
    </g>
</svg>
