<?xml version="1.0" encoding="UTF-8"?>
<svg width="20px" height="20px" viewBox="0 0 20 20" version="1.1" xmlns="http://www.w3.org/2000/svg" xmlns:xlink="http://www.w3.org/1999/xlink">
    <!-- Generator: Sketch 51 (57462) - http://www.bohemiancoding.com/sketch -->
    <title>completed icon</title>
    <desc>Created with Sketch.</desc>
    <defs></defs>
    <g id="Icons" stroke="none" stroke-width="1" fill="none" fill-rule="evenodd">
        <g transform="translate(-231.000000, -1706.000000)" id="completed-icon">
            <g transform="translate(232.000000, 1707.000000)">
                <path d="M1.57773081,13.6346087 C0.583594709,12.2330042 0,10.5387342 0,8.71061473 C0,3.90035806 4.02870585,0 9,0 C13.9700668,0 18,3.90035806 18,8.71061473 C18,13.5215649 13.9700668,17.421923 9,17.421923 C7.65975726,17.421923 6.39254057,17.1306445 5.24928406,16.6222941 L1.58632211,17.9691105 C1.19971362,18.1112821 0.818014455,17.7409423 0.899018137,17.303331 L1.57773081,13.6346087 Z" id="Fill-46" stroke="currentColor" stroke-width="2"></path>
                <path d="M9.32056774,9.67067717 L9.13626916,5.2378836 C9.11883306,4.81850635 9.44467074,4.46439916 9.86404799,4.44696306 C9.87456593,4.44652577 9.88509182,4.44630705 9.89561884,4.44630705 C10.3392745,4.44630705 10.7048452,4.79449874 10.7264372,5.23762863 L11.0231231,11.3264919 L11.0169417,11.322188 L11.0213453,11.3282697 L7.70352848,11.4400323 C7.25505755,11.4551393 6.87925337,11.1038284 6.86414637,10.6553575 C6.86383934,10.6462428 6.86368579,10.6371237 6.86368579,10.6280039 C6.86368579,10.1575789 7.23316116,9.77008874 7.70305349,9.74771038 L9.32056774,9.67067717 Z" id="V-Indication" fill="currentColor" fill-rule="nonzero" transform="translate(8.943404, 7.943404) rotate(45.000000) translate(-8.943404, -7.943404) "></path>
            </g>
        </g>
    </g>
</svg>