<svg xmlns="http://www.w3.org/2000/svg" xmlns:xlink="http://www.w3.org/1999/xlink" width="32" height="32" viewBox="0 0 32 32">
  <defs>
    <path id="everyone-copy-a" d="M14,24 L19,24 L19,9.58032254 L16.5,8.15175111 L14,9.58032254 L14,24 Z M17,7.28571429 L20,9 L20,12 L24,12 L24,14 L25,14 L25,25 L20,25 L13,25 L8,25 L8,14 L9,14 L9,12 L13,12 L13,9 L16,7.28571429 L16,5 L17,5 L17,7.28571429 Z M20,15 L20,24 L24,24 L24,15 L20,15 Z M9,15 L9,24 L13,24 L13,15 L9,15 Z M10,13 L10,14 L13,14 L13,13 L10,13 Z M20,13 L20,14 L23,14 L23,13 L20,13 Z M15,11 L15,12 L18,12 L18,11 L15,11 Z M15,13 L15,14 L18,14 L18,13 L15,13 Z M15,15 L15,16 L18,16 L18,15 L15,15 Z M15,17 L15,18 L18,18 L18,17 L15,17 Z M15,19 L15,20 L18,20 L18,19 L15,19 Z M15,21 L15,22 L18,22 L18,21 L15,21 Z M10,17 L12,17 L12,18 L10,18 L10,17 Z M10,19 L12,19 L12,20 L10,20 L10,19 Z M10,21 L12,21 L12,22 L10,22 L10,21 Z M21,17 L23,17 L23,18 L21,18 L21,17 Z M21,19 L23,19 L23,20 L21,20 L21,19 Z M21,21 L23,21 L23,22 L21,22 L21,21 Z"/>
  </defs>
  <g fill="none" fill-rule="evenodd">
    <use fill="currentColor" fill-rule="nonzero" xlink:href="#everyone-copy-a"/>
  </g>
</svg>
