<svg xmlns="http://www.w3.org/2000/svg" width="30" height="30">
  <path fill-rule="evenodd" d="M20.73 17.044h-4.21c-.84 0-1.522-.682-1.522-1.522S15.68 14 16.522 14h4.238l-1.488-2.144c-.48-.68-.31-1.615.38-2.087.69-.475 1.64-.307 2.12.373l3.716 5.356-3.703 5.336c-.47.687-1.415.87-2.112.407-.698-.462-.883-1.394-.414-2.08l1.47-2.12zM11.5 17c-.828 0-1.5-.672-1.5-1.5s.672-1.5 1.5-1.5 1.5.672 1.5 1.5-.672 1.5-1.5 1.5zm-5 0c-.828 0-1.5-.672-1.5-1.5S5.672 14 6.5 14s1.5.672 1.5 1.5S7.328 17 6.5 17z"/>
</svg>
