<?xml version="1.0" encoding="UTF-8"?>
<svg width="20px" height="20px" viewBox="0 0 20 20" version="1.1" xmlns="http://www.w3.org/2000/svg" xmlns:xlink="http://www.w3.org/1999/xlink">
    <!-- Generator: Sketch 47.1 (45422) - http://www.bohemiancoding.com/sketch -->
    <title>Rule_engine_icon</title>
    <desc>Created with Sketch.</desc>
    <defs></defs>
    <g id="Page-1" stroke="none" stroke-width="1" fill-rule="evenodd">
        <g id="Notifiaction-types" transform="translate(-1112.000000, -310.000000)" >
            <g id="Rule_engine_icon" transform="translate(1112.000000, 310.000000)">
                <path d="M18.3810526,18.4105263 C17.7557895,19.0378947 16.6642105,19.0368421 16.0378947,18.4105263 L9.71578947,12.0894737 L12.0894737,9.71789474 L18.4126316,16.04 C19.0578947,16.6852632 19.0578947,17.7347368 18.3810526,18.4105263 L18.3810526,18.4105263 Z M6.82421053,9.19789474 L9.19578947,6.82421053 L11.3094737,8.93684211 L8.93578947,11.3084211 L6.82421053,9.19789474 Z M19.1926316,15.26 L9.19578947,5.26315789 L5.26315789,9.19789474 L15.2568421,19.1905263 C15.7778947,19.7126316 16.4715789,20 17.2094737,20 C17.9473684,20 18.6410526,19.7115789 19.1926316,19.16 C20.2684211,18.0842105 20.2684211,16.3347368 19.1926316,15.26 L19.1926316,15.26 Z M14.5610526,2.99789474 L13.8094737,2.22526316 L12.1210526,3.96421053 L12.8726316,4.73684211 L14.5610526,2.99789474 Z M4.09052632,2.22526316 L3.33894737,2.99789474 L5.02736842,4.73684211 L5.77894737,3.96421053 L4.09052632,2.22526316 Z M8.42105263,3.15789474 L9.47368421,3.15789474 L9.47368421,0 L8.42105263,0 L8.42105263,3.15789474 Z M0,7.36842105 L3.15789474,7.36842105 L3.15789474,6.31578947 L0,6.31578947 L0,7.36842105 Z" id="Fill-1"></path>
            </g>
        </g>
    </g>
</svg>