<svg xmlns="http://www.w3.org/2000/svg" xmlns:xlink="http://www.w3.org/1999/xlink" width="34" height="34" viewBox="0 0 34 34">
  <defs>
    <path id="widget-copy-a" d="M9.1258939,11 C9.4877278,9.594353 10.5944974,8.4876772 12.0002118,8.1259557 L12.0002118,6 L14.0002471,6 L14.0002471,8.1263751 C14.690604,8.3041903 15.3211605,8.6642266 15.8288361,9.1718932 C16.1937987,9.5368493 16.4853386,9.9680673 16.6859124,10.4436771 C16.8922158,10.9328729 17,11.4598931 17,12 C17,14.2090347 15.2090031,16 12.9999294,16 C11.1361576,16 9.5699777,14.7251701 9.1258939,13 L2.0000353,13 C0.8954463,13 0,12.1045695 0,11 L0,6 L2.0000353,6 L2.0000353,11 L9.1258939,11 Z M14.0002471,2.001 L14.0002471,6 L0,6 L0,2.001 C0,0.8957153 0.8957311,0 2.0010353,0 L11.9992118,0 C13.104516,0 14.0002471,0.8957153 14.0002471,2.001 Z M12.0002118,2.001 C12.0002118,2.0005232 8.6671529,2.0001898 2.0010353,2 C2.0005585,2 2.0002251,2.6666667 2.0000353,4 L12.0002118,4 L12.0002118,2.001 Z M14.4145976,10.5861068 C14.0410491,10.2125648 13.5386261,10 12.9999294,10 C11.8954447,10 10.9998941,10.8955347 10.9998941,12 C10.9998941,13.1044653 11.8954447,14 12.9999294,14 C14.1044142,14 14.9999647,13.1044653 14.9999647,12 C14.9999647,11.7283393 14.9461916,11.4654114 14.843044,11.2208229 C14.7434583,10.9846809 14.5979437,10.7694497 14.4145976,10.5861068 Z"/>
  </defs>
  <g fill="none" fill-rule="evenodd" transform="translate(10 10)">
    <use fill="#20455E" fill-rule="nonzero" xlink:href="#widget-copy-a"/>
  </g>
</svg>
