<svg xmlns="http://www.w3.org/2000/svg" xmlns:xlink="http://www.w3.org/1999/xlink" width="220" height="125" viewBox="0 0 220 125">
    <defs>
        <path id="a" d="M0 0h19v19H0z"/>
    </defs>
    <g fill="none" fill-rule="evenodd" transform="translate(67 24)">
        <circle cx="45" cy="59" r="28" fill="#E0E3E5"/>
        <circle cx="40" cy="54" r="28" fill="#FFF" stroke="#66747C" stroke-width="2"/>
        <path fill="#E0E3E5" d="M48.581 46c-.913 0-1.77.355-2.417 1L42.5 50.666 38.836 47A3.395 3.395 0 0 0 36.42 46c-.913 0-1.772.355-2.417 1A3.394 3.394 0 0 0 33 49.42c0 .914.355 1.772 1.002 2.418l3.663 3.663-3.663 3.664A3.39 3.39 0 0 0 33 61.58c0 .914.355 1.772 1.002 2.418a3.393 3.393 0 0 0 2.417 1c.913 0 1.771-.354 2.417-1l3.664-3.664 3.664 3.664a3.395 3.395 0 0 0 2.417 1c.913 0 1.771-.354 2.417-1A3.396 3.396 0 0 0 52 61.58c0-.913-.356-1.772-1.002-2.418L47.335 55.5l3.663-3.664A3.392 3.392 0 0 0 52 49.419c0-.913-.356-1.772-1.002-2.418A3.395 3.395 0 0 0 48.581 46"/>
        <path fill="#F79A94" d="M46.581 62a2.4 2.4 0 0 1-1.709-.708L40.5 56.92l-4.37 4.37a2.405 2.405 0 0 1-1.71.709 2.403 2.403 0 0 1-1.712-.71A2.402 2.402 0 0 1 32 59.58c0-.645.252-1.253.71-1.71l4.37-4.37-4.37-4.371a2.4 2.4 0 0 1-.71-1.71c0-.647.252-1.254.71-1.711A2.404 2.404 0 0 1 34.42 45c.645 0 1.252.252 1.71.708l4.37 4.372 4.371-4.372a2.406 2.406 0 0 1 1.71-.708c.646 0 1.253.252 1.71.708.457.457.71 1.064.71 1.71 0 .647-.253 1.255-.71 1.712l-4.37 4.37 4.37 4.37a2.4 2.4 0 0 1 .71 1.71c0 .648-.253 1.255-.71 1.712a2.404 2.404 0 0 1-1.71.708"/>
        <g transform="translate(31 44)">
            <mask id="b" fill="#fff">
                <use xlink:href="#a"/>
            </mask>
            <path fill="#66747C" d="M15.581 0c-.913 0-1.77.355-2.417 1.001L9.5 4.665 5.836 1.001A3.395 3.395 0 0 0 3.42 0c-.913 0-1.772.355-2.417 1.001A3.394 3.394 0 0 0 0 3.419c0 .914.355 1.772 1.002 2.418L4.665 9.5l-3.663 3.664A3.39 3.39 0 0 0 0 15.581c0 .914.355 1.772 1.002 2.418A3.393 3.393 0 0 0 3.42 19c.913 0 1.771-.355 2.417-1.001L9.5 14.335l3.664 3.664A3.395 3.395 0 0 0 15.581 19c.913 0 1.771-.355 2.417-1.001A3.396 3.396 0 0 0 19 15.581c0-.913-.356-1.772-1.002-2.418L14.335 9.5l3.663-3.664A3.392 3.392 0 0 0 19 3.419c0-.913-.356-1.772-1.002-2.418A3.395 3.395 0 0 0 15.581 0m0 2a1.417 1.417 0 0 1 1.003 2.422L11.507 9.5l5.077 5.078A1.417 1.417 0 0 1 15.581 17c-.363 0-.726-.139-1.003-.416L9.5 11.507l-5.078 5.077a1.416 1.416 0 0 1-2.006 0 1.417 1.417 0 0 1 0-2.006L7.493 9.5 2.416 4.422A1.417 1.417 0 0 1 3.42 2c.363 0 .725.139 1.003.416L9.5 7.493l5.078-5.077c.277-.277.64-.416 1.003-.416" mask="url(#b)"/>
        </g>
        <circle cx="64" cy="19" r="4" stroke="#C2C7CB" stroke-width="2"/>
        <circle cx="88.5" cy="12.5" r="2.5" stroke="#C2C7CB" stroke-width="2"/>
        <circle cx="31.5" cy="2.5" r="2.5" stroke="#C2C7CB" stroke-width="2"/>
        <circle cx="1.5" cy="25.5" r="1.5" stroke="#C2C7CB" stroke-width="2"/>
    </g>
</svg>
